<?xml version="1.0"?>
<svg xmlns="http://www.w3.org/2000/svg" viewBox="0 0 30 30">
    <path style="line-height:normal;text-indent:0;text-align:start;text-decoration-line:none;text-decoration-style:solid;text-decoration-color:#000;text-transform:none;block-progression:tb;isolation:auto;mix-blend-mode:normal" d="M 20.298828 3.0175781 C 18.825512 3.0175781 17.353643 3.60127 16.25 4.765625 L 8.2421875 13.212891 C 5.2480565 16.372538 5.2480565 21.451681 8.2421875 24.611328 A 1.0001 1.0001 0 0 0 8.5683594 24.839844 A 1.0001 1.0001 0 0 0 8.5742188 24.841797 C 11.590859 27.700431 16.296353 27.668482 19.193359 24.611328 L 24.826172 18.667969 A 1.0001 1.0001 0 1 0 23.375 17.292969 L 17.742188 23.236328 C 15.49041 25.612584 11.94709 25.612584 9.6953125 23.236328 C 7.4434435 20.859975 7.4434435 16.964243 9.6953125 14.587891 L 17.701172 6.140625 C 19.165887 4.5953351 21.433723 4.5953351 22.898438 6.140625 C 24.363005 7.6857612 24.363005 10.236114 22.898438 11.78125 L 15.611328 19.470703 C 14.932427 20.186459 13.941424 20.185929 13.263672 19.470703 C 12.585909 18.755466 12.585909 17.551174 13.263672 16.835938 L 19.125 10.650391 A 1.0001 1.0001 0 1 0 17.673828 9.2753906 L 11.810547 15.460938 C 10.39031 16.959701 10.39031 19.34694 11.810547 20.845703 A 1.0001 1.0001 0 0 0 12.146484 21.078125 C 13.587125 22.281634 15.739203 22.240836 17.0625 20.845703 L 24.349609 13.15625 C 26.465965 10.923472 26.496408 7.4292098 24.554688 5.0898438 A 1.0001 1.0001 0 0 0 24.349609 4.765625 C 23.245967 3.60127 21.772145 3.0175781 20.298828 3.0175781 z" font-weight="400" font-family="sans-serif" white-space="normal" overflow="visible"/>
</svg>
