<?xml version="1.0"?>
<svg xmlns="http://www.w3.org/2000/svg" viewBox="0 0 30 30">
    <path d="M 28.232422 2 C 27.779922 2 27.327422 2.1725781 26.982422 2.5175781 L 26.457031 3.0429688 L 28.957031 5.5429688 L 29.482422 5.0175781 C 30.172422 4.3275781 30.172422 3.2075781 29.482422 2.5175781 C 29.137422 2.1725781 28.684922 2 28.232422 2 z M 6 4 C 4.895 4 4 4.895 4 6 L 4 24 C 4 25.105 4.895 26 6 26 L 24 26 C 25.105 26 26 25.105 26 24 L 26 11.328125 L 24 13.328125 L 24 24 L 6 24 L 6 10 L 16.671875 10 L 22.671875 4 L 6 4 z M 25.042969 4.4570312 L 14.474609 15.025391 L 14 18 L 16.974609 17.525391 L 27.542969 6.9570312 L 25.042969 4.4570312 z"/>
</svg>
