<?xml version="1.0" encoding="UTF-8"?>
<svg xmlns="http://www.w3.org/2000/svg" xmlns:xlink="http://www.w3.org/1999/xlink" viewBox="0 0 50 50" version="1.1">
<g id="surface1">
<path style=" " d="M 25 13 C 14.5 13 7.101563 14.992188 3 19.09375 L 2.90625 19.1875 C 1.207031 20.789063 2.3125 27.105469 2.3125 27.40625 C 2.511719 28.304688 2.894531 29.09375 3.59375 29.59375 C 4.09375 29.992188 4.710938 30.101563 5.3125 30 C 6.011719 29.800781 13.507813 28.292969 14.40625 28.09375 C 15.304688 27.894531 16.101563 26.988281 16.5 25.6875 C 16.699219 24.988281 17.292969 21.992188 17.59375 20.59375 C 18.59375 20.394531 20.898438 20.09375 25 20.09375 C 29.101563 20.09375 31.40625 20.488281 32.40625 20.6875 C 32.707031 21.988281 33.300781 24.988281 33.5 25.6875 C 33.898438 26.988281 34.695313 27.894531 35.59375 28.09375 C 36.394531 28.292969 43.886719 29.898438 44.6875 30 L 45 30 C 46.101563 30 47.289063 29.105469 47.6875 27.40625 C 47.6875 27.105469 48.792969 20.789063 47.09375 19.1875 L 47 19.09375 C 42.898438 14.992188 35.5 13 25 13 Z M 24.90625 27.96875 C 24.863281 27.976563 24.820313 27.988281 24.78125 28 C 24.316406 28.105469 23.988281 28.523438 24 29 L 24 42.5625 L 20.71875 39.28125 C 20.476563 39.03125 20.121094 38.925781 19.78125 39 C 19.40625 39.066406 19.105469 39.339844 19 39.703125 C 18.894531 40.070313 19.003906 40.460938 19.28125 40.71875 L 24.15625 45.5625 C 24.175781 45.59375 24.195313 45.625 24.21875 45.65625 L 24.28125 45.71875 C 24.328125 45.765625 24.382813 45.808594 24.4375 45.84375 L 25 46.40625 L 25.5625 45.84375 C 25.644531 45.78125 25.71875 45.707031 25.78125 45.625 L 30.71875 40.71875 C 31.117188 40.320313 31.117188 39.679688 30.71875 39.28125 C 30.320313 38.882813 29.679688 38.882813 29.28125 39.28125 L 26 42.5625 L 26 29 C 26.011719 28.710938 25.894531 28.433594 25.6875 28.238281 C 25.476563 28.039063 25.191406 27.941406 24.90625 27.96875 Z "/>
</g>
</svg>
