<?xml version="1.0"?>
<svg xmlns="http://www.w3.org/2000/svg" viewBox="0 0 30 30">
    <path style="line-height:normal;text-indent:0;text-align:start;text-decoration-line:none;text-decoration-style:solid;text-decoration-color:#000;text-transform:none;block-progression:tb;isolation:auto;mix-blend-mode:normal" d="M 6 4 C 4.9069372 4 4 4.9069372 4 6 L 4 10 A 1.0001 1.0001 0 1 0 6 10 L 6 6 L 10 6 A 1.0001 1.0001 0 1 0 10 4 L 6 4 z M 20 4 A 1.0001 1.0001 0 1 0 20 6 L 24 6 L 24 10 A 1.0001 1.0001 0 1 0 26 10 L 26 6 C 26 4.9069372 25.093063 4 24 4 L 20 4 z M 4.984375 18.986328 A 1.0001 1.0001 0 0 0 4 20 L 4 24 C 4 25.093063 4.9069372 26 6 26 L 10 26 A 1.0001 1.0001 0 1 0 10 24 L 6 24 L 6 20 A 1.0001 1.0001 0 0 0 4.984375 18.986328 z M 24.984375 18.986328 A 1.0001 1.0001 0 0 0 24 20 L 24 24 L 20 24 A 1.0001 1.0001 0 1 0 20 26 L 24 26 C 25.093063 26 26 25.093063 26 24 L 26 20 A 1.0001 1.0001 0 0 0 24.984375 18.986328 z" font-weight="400" font-family="sans-serif" white-space="normal" overflow="visible"/>
</svg>
