<?xml version="1.0"?>
<svg xmlns="http://www.w3.org/2000/svg" viewBox="0 0 30 30">
    <path style="line-height:normal;text-indent:0;text-align:start;text-decoration-line:none;text-decoration-style:solid;text-decoration-color:#000;text-transform:none;block-progression:tb;isolation:auto;mix-blend-mode:normal" d="M 26.984375 2.9863281 A 1.0001 1.0001 0 0 0 26 4 L 26 4.4042969 L 6 12.5 L 6 17.5 L 10.673828 19.390625 L 10.320312 20.226562 C 9.6783028 21.741468 10.398142 23.516592 11.912109 24.158203 A 1.0001 1.0001 0 0 0 11.914062 24.158203 L 14.292969 25.166016 C 15.807874 25.808026 17.584952 25.086226 18.226562 23.572266 L 18.632812 22.613281 L 26 25.595703 L 26 26 A 1.0001 1.0001 0 1 0 28 26 L 28 4 A 1.0001 1.0001 0 0 0 26.984375 2.9863281 z M 2.984375 11.986328 A 1.0001 1.0001 0 0 0 2 13 L 2 17 A 1.0001 1.0001 0 1 0 4 17 L 4 13 A 1.0001 1.0001 0 0 0 2.984375 11.986328 z M 12.527344 20.142578 L 16.777344 21.863281 L 16.384766 22.792969 C 16.164377 23.313004 15.593313 23.544209 15.074219 23.324219 L 12.693359 22.316406 C 12.173324 22.096018 11.94212 21.524954 12.162109 21.005859 L 12.527344 20.142578 z" font-weight="400" font-family="sans-serif" white-space="normal" overflow="visible"/>
</svg>
