<?xml version="1.0"?>
<svg xmlns="http://www.w3.org/2000/svg" viewBox="0 0 30 30">
    <path style="line-height:normal;text-indent:0;text-align:start;text-decoration-line:none;text-decoration-style:solid;text-decoration-color:#000;text-transform:none;block-progression:tb;isolation:auto;mix-blend-mode:normal" d="M 9.984375 3.9863281 A 1.0001 1.0001 0 0 0 9 5 L 9 9 L 5 9 A 1.0001 1.0001 0 1 0 5 11 L 10 11 A 1.0001 1.0001 0 0 0 11 10 L 11 5 A 1.0001 1.0001 0 0 0 9.984375 3.9863281 z M 19.984375 3.9863281 A 1.0001 1.0001 0 0 0 19 5 L 19 10 A 1.0001 1.0001 0 0 0 20 11 L 25 11 A 1.0001 1.0001 0 1 0 25 9 L 21 9 L 21 5 A 1.0001 1.0001 0 0 0 19.984375 3.9863281 z M 5 19 A 1.0001 1.0001 0 1 0 5 21 L 9 21 L 9 25 A 1.0001 1.0001 0 1 0 11 25 L 11 20 A 1.0001 1.0001 0 0 0 10 19 L 5 19 z M 20 19 A 1.0001 1.0001 0 0 0 19 20 L 19 25 A 1.0001 1.0001 0 1 0 21 25 L 21 21 L 25 21 A 1.0001 1.0001 0 1 0 25 19 L 20 19 z" font-weight="400" font-family="sans-serif" white-space="normal" overflow="visible"/>
</svg>
