<?xml version="1.0" standalone="no"?>
  <!DOCTYPE svg PUBLIC "-//W3C//DTD SVG 1.1//EN" "http://www.w3.org/Graphics/SVG/1.1/DTD/svg11.dtd" >
  <svg>
  <metadata>
  Created by font-carrier
  </metadata>
  <defs>
  <font id="SFMono-BoldItalic" horiz-adv-x="1266" vert-adv-y="1266" >
    <font-face
      
      font-family="SF Mono"
      
      font-weight="400"
      
      font-stretch="normal"
      
      units-per-em="2048"
      
      ascent="1950"
      
      descent="-494"
      
    />
      <missing-glyph />

      

      
      <glyph glyph-name="uni21" unicode="&#x21;" d="M730 1443L1047 1443L845 449L579 449L730 1443M785.50 19Q785.50 19 759.25-6Q733-31 657-31Q581-31 529 19.50Q477 70 477 143Q477 216 529 266.50Q581 317 657 317Q733 317 785.50 267Q838 217 838 143Q838 69 785.50 19Z"  horiz-adv-x="1266" vert-adv-y="2048"  />

      
      <glyph glyph-name="uni22" unicode="&#x22;" d="M669 791L402 791L516 1443L783 1443L669 791M1144 791L875 791L989 1443L1258 1443L1144 791Z"  horiz-adv-x="1266" vert-adv-y="2048"  />

      
      <glyph glyph-name="uni23" unicode="&#x23;" d="M1346 853L1141 853L1046 610L1248 610L1168 379L965 379L822 0L601 0L742 379L520 379L379 0L156 0L299 379L100 379L181 610L381 610L475 853L277 853L357 1081L556 1081L693 1444L914 1444L777 1081L999 1081L1136 1444L1358 1444L1222 1081L1424 1081L1346 853M689 873L581 588L830 588L940 873L689 873Z"  horiz-adv-x="1266" vert-adv-y="2048"  />

      
      <glyph glyph-name="uni24" unicode="&#x24;" d="M800 591L727 175Q849 180 923.50 239.50Q998 299 998 390Q998 461 954 506Q910 551 800 591M718 874L787 1267Q680 1258 616.50 1204.50Q553 1151 553 1068Q553 946 718 874M1328 1053L1083 1053Q1084 1053 1084 1064Q1084 1131 1038 1183.50Q992 1236 917 1257L842 831L909 811Q1249 701 1249 416Q1249 218 1093.50 92.50Q938-33 690-35L671-141L539-141L559-25Q378 4 265 109.50Q152 215 152 359Q152 398 154 402L396 402Q395 398 395 388Q395 312 448.50 258.50Q502 205 596 185L675 633L636 646Q296 758 296 1043Q296 1231 444 1353Q592 1475 824 1478L843 1584L975 1584L954 1467Q1119 1436 1224.50 1332Q1330 1228 1330 1093Q1330 1065 1328 1053Z"  horiz-adv-x="1266" vert-adv-y="2048"  />

      
      <glyph glyph-name="uni25" unicode="&#x25;" d="M457 743Q332 743 259.50 818Q187 893 187 1023Q187 1064 195 1109L205 1162Q230 1304 320.50 1389.50Q411 1475 536 1475Q660 1475 733 1400.50Q806 1326 806 1198Q806 1159 800 1120L789 1067Q763 918 673.50 830.50Q584 743 457 743M375 1029Q375 915 471 915Q520 915 554.50 956.50Q589 998 603 1075L613 1130Q619 1164 619 1190Q619 1245 594.50 1274.50Q570 1304 524 1304Q421 1304 391 1145L381 1090Q375 1058 375 1029M985-33Q860-33 787.50 42Q715 117 715 246Q715 294 722 333L733 385Q759 527 849 613Q939 699 1063 699Q1188 699 1261 624.50Q1334 550 1334 422Q1334 382 1328 343L1317 291Q1292 141 1202.50 54Q1113-33 985-33M902 253Q902 198 926.50 168.50Q951 139 998 139Q1048 139 1082.50 180Q1117 221 1131 298L1141 353Q1146 391 1146 414Q1146 469 1121.50 498.50Q1097 528 1051 528Q1001 528 967 486.50Q933 445 919 368L909 313Q902 284 902 253M1520 1443L1492 1281L0 0L29 162L1520 1443Z"  horiz-adv-x="1266" vert-adv-y="2048"  />

      
      <glyph glyph-name="uni26" unicode="&#x26;" d="M522 615Q355 531 346 388Q339 301 394.50 246Q450 191 545 189Q671 186 788 274L560 636L522 615M943 0L886 92Q805 32 704 1Q603-30 498-28Q310-23 198.50 83Q87 189 97 355Q103 487 183.50 595Q264 703 411 776L473 808Q357 979 367 1120Q375 1275 488 1375Q601 1475 765 1472Q915 1469 1003 1383Q1091 1297 1083 1163Q1076 1042 998 944.50Q920 847 762 765L951 471Q983 508 1003 561Q1023 614 1037 701L1042 740L1262 740L1249 652Q1230 533 1181.50 425Q1133 317 1065 248L1236 0L943 0M860 1139Q865 1193 832 1229Q799 1265 741 1266Q681 1267 636 1226.50Q591 1186 586 1126Q579 1037 667 915Q849 1014 860 1139Z"  horiz-adv-x="1266" vert-adv-y="2048"  />

      
      <glyph glyph-name="uni27" unicode="&#x27;" d="M906 791L640 791L754 1443L1021 1443L906 791Z"  horiz-adv-x="1266" vert-adv-y="2048"  />

      
      <glyph glyph-name="uni28" unicode="&#x28;" d="M923 1652L1229 1652Q993 1432 856 1135.50Q719 839 719 551Q719 133 878-209L603-209Q525-80 478 118Q431 316 431 514Q431 1168 923 1652Z"  horiz-adv-x="1266" vert-adv-y="2048"  />

      
      <glyph glyph-name="uni29" unicode="&#x29;" d="M597-210L291-210Q527 10 664 306.50Q801 603 801 891Q801 1309 642 1651L917 1651Q995 1522 1042 1324Q1089 1126 1089 928Q1089 275 597-210Z"  horiz-adv-x="1266" vert-adv-y="2048"  />

      
      <glyph glyph-name="uni2a" unicode="&#x2a;" d="M1337 730L930 602L1267 342L1128 167L808 461L750 32L536 72L628 492L227 326L153 540L560 669L223 929L362 1104L683 809L741 1239L955 1199L864 780L1263 945L1337 730Z"  horiz-adv-x="1266" vert-adv-y="2048"  />

      
      <glyph glyph-name="uni2b" unicode="&#x2b;" d="M854 518L779 101L522 101L596 518L182 518L223 766L638 766L713 1183L970 1183L895 766L1310 766L1268 518L854 518Z"  horiz-adv-x="1266" vert-adv-y="2048"  />

      
      <glyph glyph-name="uni2c" unicode="&#x2c;" d="M565-335L299-335L564 419L886 419L565-335Z"  horiz-adv-x="1266" vert-adv-y="2048"  />

      
      <glyph glyph-name="uni2d" unicode="&#x2d;" d="M1255 518L196 518L237 766L1297 766L1255 518Z"  horiz-adv-x="1266" vert-adv-y="2048"  />

      
      <glyph glyph-name="uni2011" unicode="&#x2011;" d="M1255 518L196 518L237 766L1297 766L1255 518Z"  horiz-adv-x="1266" vert-adv-y="2048"  />

      
      <glyph glyph-name="uni2e" unicode="&#x2e;" d="M823.50 47Q823.50 47 791.25 14Q759-19 668-19Q577-19 512.50 47.50Q448 114 448 206Q448 299 512.50 365.50Q577 432 668 432Q759 432 823.50 365.50Q888 299 888 206Q888 113 823.50 47Z"  horiz-adv-x="1266" vert-adv-y="2048"  />

      
      <glyph glyph-name="uni2f" unicode="&#x2f;" d="M394-220L113-220L1120 1663L1407 1663L394-220Z"  horiz-adv-x="1266" vert-adv-y="2048"  />

      
      <glyph glyph-name="uni30" unicode="&#x30;" d="M1068.50 142Q1068.50 142 987.25 56.50Q906-29 675-29Q444-29 316 117.50Q188 264 189 527Q191 648 206 743Q209 768 225 845Q287 1137 449 1305Q611 1473 837 1473Q1068 1473 1196 1326Q1324 1179 1323 915Q1323 846 1313 769Q1308 700 1291 611Q1231 313 1068.50 142M828 1236Q714 1236 623.50 1111.50Q533 987 492 776L486 747Q479 712 479 688L1039 1017Q1022 1123 967.50 1179.50Q913 1236 828 1236M684 208Q803 208 893.50 331Q984 454 1022 667L1028 696Q1034 723 1034 758L473 428Q489 322 543.50 265Q598 208 684 208Z"  horiz-adv-x="1266" vert-adv-y="2048"  />

      
      <glyph glyph-name="uni31" unicode="&#x31;" d="M858 237L1233 237L1193 0L816 0L538 0L157 0L197 237L580 237L746 1164L730 1164L322 931L367 1196L789 1443L1070 1443L858 237Z"  horiz-adv-x="1266" vert-adv-y="2048"  />

      
      <glyph glyph-name="uni32" unicode="&#x32;" d="M295 1018Q296 1144 367 1248.50Q438 1353 560 1413Q682 1473 830 1473Q1041 1473 1178 1366.50Q1315 1260 1315 1096Q1315 964 1232 847.50Q1149 731 923 544L564 255L561 239L1204 239L1164 0L133 0L168 207L736 679Q907 823 971 904.50Q1035 986 1035 1060Q1035 1138 972 1188.50Q909 1239 812 1239Q705 1239 633.50 1176.50Q562 1114 558 1018L295 1018Z"  horiz-adv-x="1266" vert-adv-y="2048"  />

      
      <glyph glyph-name="uni33" unicode="&#x33;" d="M574 634L610 852L764 852Q895 852 974.50 909.50Q1054 967 1054 1061Q1054 1142 990.50 1192Q927 1242 825 1242Q724 1242 653 1191Q582 1140 567 1057L316 1057Q331 1244 475 1358.50Q619 1473 838 1473Q1052 1473 1185.50 1372Q1319 1271 1319 1108Q1319 973 1228.50 876Q1138 779 993 759L991 742Q1113 716 1182 634.50Q1251 553 1251 436Q1251 227 1095 99Q939-29 686-29Q459-29 314.50 78Q170 185 170 354Q170 393 174 414L437 414Q436 411 436 392Q436 315 510 265Q584 215 697 215Q822 215 899 278Q976 341 976 443Q976 530 904 582Q832 634 711 634L574 634Z"  horiz-adv-x="1266" vert-adv-y="2048"  />

      
      <glyph glyph-name="uni34" unicode="&#x34;" d="M747 0L796 273L151 273L189 501L795 1443L1085 1443L498 524L495 506L844 506L909 870L1162 870L1096 501L1293 501L1254 273L1062 273L1013 0L747 0Z"  horiz-adv-x="1266" vert-adv-y="2048"  />

      
      <glyph glyph-name="uni35" unicode="&#x35;" d="M680-29Q542-29 428 23.50Q314 76 249 167.50Q184 259 184 370Q184 398 185 408L459 408Q461 329 530.50 273Q600 217 695 217Q822 217 901.50 297Q981 377 981 506Q981 607 915 673Q849 739 746 739Q672 739 610 707.50Q548 676 510 619L234 619L447 1443L1325 1443L1286 1204L639 1204L528 819L545 819Q590 881 667.50 916Q745 951 838 951Q1017 951 1136 829.50Q1255 708 1255 525Q1255 372 1179 244.50Q1103 117 971 44Q839-29 680-29Z"  horiz-adv-x="1266" vert-adv-y="2048"  />

      
      <glyph glyph-name="uni36" unicode="&#x36;" d="M1288 494Q1288 346 1214.50 226Q1141 106 1011.50 38.50Q882-29 721-29Q485-29 333.50 112Q182 253 182 473Q182 628 248.50 761.50Q315 895 470 1052L855 1443L1210 1443L753 996Q737 979 695 936.50Q653 894 640 880L662 880Q744 940 862 940Q1043 940 1165.50 811.50Q1288 683 1288 494M733 214Q853 214 932.50 288.50Q1012 363 1012 476Q1012 588 933.50 661.50Q855 735 736 735Q617 735 538.50 661Q460 587 460 474Q460 361 537 287.50Q614 214 733 214Z"  horiz-adv-x="1266" vert-adv-y="2048"  />

      
      <glyph glyph-name="uni37" unicode="&#x37;" d="M241 0L1076 1190L1079 1207L343 1207L383 1444L1409 1444L1369 1205L546 0L241 0Z"  horiz-adv-x="1266" vert-adv-y="2048"  />

      
      <glyph glyph-name="uni38" unicode="&#x38;" d="M818 855Q919 855 984 912.50Q1049 970 1049 1059Q1049 1148 986.50 1203.50Q924 1259 823 1259Q721 1259 656.50 1202Q592 1145 592 1054Q592 966 655 910.50Q718 855 818 855M705 189Q826 189 902 252Q978 315 978 417Q978 517 903 580Q828 643 708 643Q588 643 512 579Q436 515 436 414Q436 314 510.50 251.50Q585 189 705 189M1325 1088Q1325 961 1232.50 870Q1140 779 1003 771L1000 754Q1126 712 1197.50 617.50Q1269 523 1269 397Q1269 204 1113.50 87Q958-30 704-30Q453-30 298 84.50Q143 199 143 386Q143 535 254.50 640.50Q366 746 537 758L541 775Q433 819 373.50 898.50Q314 978 314 1077Q314 1252 456.50 1362.50Q599 1473 823 1473Q1044 1473 1184.50 1365.50Q1325 1258 1325 1088Z"  horiz-adv-x="1266" vert-adv-y="2048"  />

      
      <glyph glyph-name="uni39" unicode="&#x39;" d="M248 950Q248 1098 321.50 1218Q395 1338 524.50 1405.50Q654 1473 815 1473Q1051 1473 1202.50 1332Q1354 1191 1354 971Q1354 816 1287.50 682.50Q1221 549 1066 392L681 1L326 1L783 448Q799 465 841 507.50Q883 550 896 564L874 564Q792 504 674 504Q493 504 370.50 632.50Q248 761 248 950M803 1230Q683 1230 603.50 1155.50Q524 1081 524 968Q524 856 602.50 782.50Q681 709 800 709Q919 709 997.50 783Q1076 857 1076 970Q1076 1083 999 1156.50Q922 1230 803 1230Z"  horiz-adv-x="1266" vert-adv-y="2048"  />

      
      <glyph glyph-name="uni3a" unicode="&#x3a;" d="M669-19Q579-19 514 47.50Q449 114 449 206Q449 299 514 365.50Q579 432 669 432Q760 432 824.50 366Q889 300 889 206Q889 114 824.50 47.50Q760-19 669-19M958.50 804.50Q958.50 804.50 926.25 771.25Q894 738 803 738Q712 738 647.50 804.50Q583 871 583 964Q583 1057 647.50 1123Q712 1189 803 1189Q894 1189 958.50 1123Q1023 1057 1023 964Q1023 871 958.50 804.50Z"  horiz-adv-x="1266" vert-adv-y="2048"  />

      
      <glyph glyph-name="uni3b" unicode="&#x3b;" d="M804 738Q714 738 649 804.50Q584 871 584 964Q584 1057 649 1123Q714 1189 804 1189Q895 1189 959.50 1123Q1024 1057 1024 964Q1024 871 959.50 804.50Q895 738 804 738M579-326L312-326L574 419L898 419L579-326Z"  horiz-adv-x="1266" vert-adv-y="2048"  />

      
      <glyph glyph-name="uni3c" unicode="&#x3c;" d="M1267 931L574 635L572 616L1154 321L1105 26L261 521L301 763L1321 1259L1267 931Z"  horiz-adv-x="1266" vert-adv-y="2048"  />

      
      <glyph glyph-name="uni3d" unicode="&#x3d;" d="M1208 249L149 249L195 523L1254 523L1208 249M1297 759L238 759L284 1033L1343 1033L1297 759Z"  horiz-adv-x="1266" vert-adv-y="2048"  />

      
      <glyph glyph-name="uni3e" unicode="&#x3e;" d="M227 353L920 649L922 668L340 963L389 1258L1233 763L1193 521L173 25L227 353Z"  horiz-adv-x="1266" vert-adv-y="2048"  />

      
      <glyph glyph-name="uni3f" unicode="&#x3f;" d="M764 19.50Q764 19.50 738-5.75Q712-31 636-31Q560-31 508 19.50Q456 70 456 143Q456 216 508 266.50Q560 317 636 317Q712 317 764 266.50Q816 216 816 143Q816 70 764 19.50M346 1065Q376 1252 515.50 1361Q655 1470 859 1466Q1058 1463 1181 1358Q1304 1253 1296 1094Q1285 845 1023 717Q910 662 865 614Q820 566 812 490L807 450L544 450L548 496Q560 636 612.50 714Q665 792 786 849Q893 901 939 948.50Q985 996 990 1063Q997 1130 951.50 1173Q906 1216 826 1218Q744 1220 687.50 1179Q631 1138 615 1065L346 1065Z"  horiz-adv-x="1266" vert-adv-y="2048"  />

      
      <glyph glyph-name="uni40" unicode="&#x40;" d="M669-209Q169-209 169 328Q169 435 196 606L221 734Q286 1112 443.50 1296Q601 1480 857 1480Q1098 1480 1223.50 1356.50Q1349 1233 1349 995Q1349 890 1329 776L1286 540Q1259 391 1195.50 333.50Q1132 276 997 276L722 276Q670 276 639 308Q608 340 608 394Q608 409 612 431L685 854Q695 917 733 953.50Q771 990 826 990Q880 990 911 958.50Q942 927 942 872Q942 860 938 836L865 415L995 415Q1056 415 1087.50 441Q1119 467 1130 526L1171 751Q1191 874 1191 969Q1191 1326 841 1326Q652 1326 544 1186Q436 1046 380 726L360 616Q333 472 333 347Q333 140 423 42Q513-56 702-56Q816-56 907-32L882-181Q814-209 669-209Z"  horiz-adv-x="1266" vert-adv-y="2048"  />

      
      <glyph glyph-name="uni41" unicode="&#x41;" d="M578 575L893 575L848 1160L835 1160L578 575M938 0L911 353L481 353L326 0L32 0L719 1443L1055 1443L1232 0L938 0Z"  horiz-adv-x="1266" vert-adv-y="2048"  />

      
      <glyph glyph-name="uni42" unicode="&#x42;" d="M639 1224L571 849L775 849Q884 849 953.50 907Q1023 965 1023 1055Q1023 1136 969.50 1180Q916 1224 816 1224L639 1224M460 223L699 223Q828 223 903.50 285Q979 347 979 454Q979 545 913.50 593Q848 641 723 641L536 641L460 223M144 0L398 1443L875 1443Q1083 1443 1201.50 1353Q1320 1263 1319 1105Q1318 971 1231.50 876.50Q1145 782 998 756L996 740Q1119 719 1195.50 628.50Q1272 538 1272 414Q1271 229 1128 114.50Q985 0 756 0L144 0Z"  horiz-adv-x="1266" vert-adv-y="2048"  />

      
      <glyph glyph-name="uni43" unicode="&#x43;" d="M1290 450Q1255 225 1103 97.50Q951-30 719-30Q482-30 337.50 112Q193 254 193 487Q193 569 206 637L254 916Q301 1187 457.50 1329.50Q614 1472 864 1472Q1090 1472 1232 1341.50Q1374 1211 1374 1003Q1374 978 1368 927L1081 927Q1084 960 1084 995Q1084 1094 1021 1154.50Q958 1215 854 1215Q735 1215 655 1132Q575 1049 547 895L498 609Q485 544 485 484Q485 366 551 297.50Q617 229 730 229Q955 229 1004 479L1006 495L1295 495Q1295 468 1290 450Z"  horiz-adv-x="1266" vert-adv-y="2048"  />

      
      <glyph glyph-name="uni44" unicode="&#x44;" d="M783 1443Q1045 1443 1190 1297.50Q1335 1152 1335 890Q1335 822 1329 766Q1327 736 1311 651Q1198 0 634 0L121 0L375 1443L783 1443M734 1201L619 1201L447 245L594 245Q775 245 877 348.50Q979 452 1017 668Q1017 669 1024 709.50Q1031 750 1032 763Q1037 818 1037 872Q1037 1031 958.50 1116Q880 1201 734 1201Z"  horiz-adv-x="1266" vert-adv-y="2048"  />

      
      <glyph glyph-name="uni45" unicode="&#x45;" d="M1149 245L1108 0L198 0L452 1443L1362 1443L1321 1198L696 1198L631 843L1219 843L1181 616L593 616L524 245L1149 245Z"  horiz-adv-x="1266" vert-adv-y="2048"  />

      
      <glyph glyph-name="uni46" unicode="&#x46;" d="M500 0L215 0L469 1443L1381 1443L1340 1198L713 1198L642 807L1211 807L1172 572L602 572L500 0Z"  horiz-adv-x="1266" vert-adv-y="2048"  />

      
      <glyph glyph-name="uni47" unicode="&#x47;" d="M1265 442Q1225 215 1080.50 92.50Q936-30 708-30Q474-30 332 109.50Q190 249 190 479Q190 559 203 633L254 926Q301 1189 457 1330.50Q613 1472 856 1472Q1078 1472 1216.50 1344Q1355 1216 1355 1011Q1355 982 1352 964L1075 964Q1077 986 1077 1003Q1077 1097 1012 1157Q947 1217 844 1217Q726 1217 645.50 1132.50Q565 1048 537 893L487 605Q473 527 473 478Q473 359 540 290Q607 221 722 221Q832 221 903.50 286.50Q975 352 997 474L1013 553L729 553L765 767L1323 767L1265 442Z"  horiz-adv-x="1266" vert-adv-y="2048"  />

      
      <glyph glyph-name="uni48" unicode="&#x48;" d="M1148 0L869 0L978 610L505 610L397 0L118 0L372 1443L651 1443L547 855L1019 855L1123 1443L1402 1443L1148 0Z"  horiz-adv-x="1266" vert-adv-y="2048"  />

      
      <glyph glyph-name="uni49" unicode="&#x49;" d="M1074 0L192 0L233 244L532 244L705 1199L406 1199L446 1443L1328 1443L1287 1199L988 1199L816 244L1115 244L1074 0Z"  horiz-adv-x="1266" vert-adv-y="2048"  />

      
      <glyph glyph-name="uni4a" unicode="&#x4a;" d="M644-29Q435-29 306.50 85.50Q178 200 178 387Q178 406 182 436L450 436Q448 422 448 413Q448 332 503 280Q558 228 644 228Q735 228 793 285Q851 342 870 451L1005 1199L488 1199L528 1443L1332 1443L1148 413Q1110 195 982 83Q854-29 644-29Z"  horiz-adv-x="1266" vert-adv-y="2048"  />

      
      <glyph glyph-name="uni4b" unicode="&#x4b;" d="M920 804L1271 0L959 0L685 622L507 445L427 0L158 0L412 1443L681 1443L564 790L581 790L1202 1443L1525 1443L920 804Z"  horiz-adv-x="1266" vert-adv-y="2048"  />

      
      <glyph glyph-name="uni4c" unicode="&#x4c;" d="M1186 251L1144 0L231 0L485 1443L766 1443L554 251L1186 251Z"  horiz-adv-x="1266" vert-adv-y="2048"  />

      
      <glyph glyph-name="uni4d" unicode="&#x4d;" d="M411 476L325 0L87 0L341 1443L635 1443L731 618L748 618L1135 1443L1433 1443L1179 0L941 0L1027 476L1165 1052L1144 1052L792 339L599 339L498 1052L477 1052L411 476Z"  horiz-adv-x="1266" vert-adv-y="2048"  />

      
      <glyph glyph-name="uni4e" unicode="&#x4e;" d="M373 0L127 0L381 1443L634 1443L957 484L974 484L1147 1443L1393 1443L1139 0L887 0L563 965L547 965L373 0Z"  horiz-adv-x="1266" vert-adv-y="2048"  />

      
      <glyph glyph-name="uni4f" unicode="&#x4f;" d="M1284 543Q1235 263 1082.50 117Q930-29 687-29Q466-29 324 110.50Q182 250 182 467Q182 607 197 682L236 902Q285 1178 438.50 1325Q592 1472 830 1472Q1055 1472 1196.50 1332Q1338 1192 1338 971Q1338 846 1323 763L1284 543M701 223Q820 223 893.50 312Q967 401 1000 587L1039 802Q1053 894 1053 964Q1053 1081 989.50 1150.50Q926 1220 818 1220Q699 1220 626 1132.50Q553 1045 520 861L482 649Q468 559 468 483Q468 362 530.50 292.50Q593 223 701 223Z"  horiz-adv-x="1266" vert-adv-y="2048"  />

      
      <glyph glyph-name="uni50" unicode="&#x50;" d="M403 1443L866 1443Q1088 1443 1217.50 1326.50Q1347 1210 1347 1010Q1347 768 1179.50 613Q1012 458 749 458L516 458L433 0L149 0L403 1443M648 1210L555 692L735 692Q885 692 973 773Q1061 854 1061 991Q1061 1096 996 1153Q931 1210 811 1210L648 1210Z"  horiz-adv-x="1266" vert-adv-y="2048"  />

      
      <glyph glyph-name="uni51" unicode="&#x51;" d="M907 461L943 376Q981 458 1003 579L1042 798Q1056 879 1056 961Q1056 1079 991.50 1149.50Q927 1220 818 1220Q698 1220 625 1132Q552 1044 518 856L480 641Q464 556 464 473Q464 352 527.50 281.50Q591 211 701 211Q724 211 743 214L640 461L907 461M197 682L236 902Q285 1178 438.50 1325Q592 1472 830 1472Q1055 1472 1196.50 1332Q1338 1192 1338 971Q1338 859 1323 763L1283 543Q1231 242 1059 96L1165-158L899-158L838-13Q770-29 687-29Q466-29 324 110.50Q182 250 182 467Q182 607 197 682Z"  horiz-adv-x="1266" vert-adv-y="2048"  />

      
      <glyph glyph-name="uni52" unicode="&#x52;" d="M642 1211L558 749L753 749Q879 749 955 805.50Q1031 862 1052 965Q1057 988 1057 1017Q1058 1105 1000 1158Q942 1211 842 1211L642 1211M426 0L143 0L397 1443L892 1443Q1096 1443 1224.50 1331Q1353 1219 1352 1032Q1352 979 1344 934Q1321 796 1237.50 702.50Q1154 609 1019 568L1206 0L905 0L739 532Q732 531 670 531L521 531L426 0Z"  horiz-adv-x="1266" vert-adv-y="2048"  />

      
      <glyph glyph-name="uni53" unicode="&#x53;" d="M163 431L434 431Q433 425 433 410Q433 320 510.50 264Q588 208 713 208Q826 208 897.50 260Q969 312 969 394Q969 461 919.50 506.50Q870 552 756 589L630 631Q297 742 297 1018Q297 1220 442.50 1346Q588 1472 821 1472Q1046 1472 1188.50 1357.50Q1331 1243 1331 1062Q1331 1033 1329 1023L1058 1023Q1059 1028 1059 1046Q1059 1127 993 1181.50Q927 1236 827 1236Q720 1236 654 1186.50Q588 1137 588 1055Q588 990 634.50 944.50Q681 899 785 865L912 822Q1089 763 1173.50 670.50Q1258 578 1258 445Q1258 228 1109.50 99.50Q961-29 712-29Q473-29 316.50 89Q160 207 160 388Q160 414 163 431Z"  horiz-adv-x="1266" vert-adv-y="2048"  />

      
      <glyph glyph-name="uni54" unicode="&#x54;" d="M775 0L491 0L704 1198L291 1198L332 1443L1442 1443L1401 1198L988 1198L775 0Z"  horiz-adv-x="1266" vert-adv-y="2048"  />

      
      <glyph glyph-name="uni55" unicode="&#x55;" d="M193 534L353 1443L638 1443L479 545Q469 493 469 460Q469 351 535 289Q601 227 705 227Q809 227 879.50 297.50Q950 368 974 497L1142 1443L1426 1443L1248 452Q1207 224 1062 97.50Q917-29 698-29Q468-29 326 98Q184 225 184 437Q184 483 193 534Z"  horiz-adv-x="1266" vert-adv-y="2048"  />

      
      <glyph glyph-name="uni56" unicode="&#x56;" d="M685 283L1196 1443L1491 1443L801 0L465 0L283 1443L578 1443L672 283L685 283Z"  horiz-adv-x="1266" vert-adv-y="2048"  />

      
      <glyph glyph-name="uni57" unicode="&#x57;" d="M794 850L779 850L478 0L224 0L254 1443L509 1443L482 948L440 369L456 369L722 1113L940 1113L941 369L957 369L1113 941L1263 1443L1520 1443L1045 0L792 0L794 850Z"  horiz-adv-x="1266" vert-adv-y="2048"  />

      
      <glyph glyph-name="uni58" unicode="&#x58;" d="M25 0L581 728L278 1443L580 1443L782 925L796 925L1183 1443L1493 1443L922 722L1239 0L945 0L727 503L713 503L322 0L25 0Z"  horiz-adv-x="1266" vert-adv-y="2048"  />

      
      <glyph glyph-name="uni59" unicode="&#x59;" d="M775 0L492 0L587 534L274 1443L571 1443L761 826L777 826L1181 1443L1497 1443L870 534L775 0Z"  horiz-adv-x="1266" vert-adv-y="2048"  />

      
      <glyph glyph-name="uni5a" unicode="&#x5a;" d="M133 0L166 197L1000 1181L1002 1198L363 1198L404 1443L1393 1443L1360 1245L525 262L523 245L1198 245L1157 0L133 0Z"  horiz-adv-x="1266" vert-adv-y="2048"  />

      
      <glyph glyph-name="uni5b" unicode="&#x5b;" d="M622 1663L1249 1663L1212 1443L857 1443L603 0L965 0L928-220L294-220L622 1663Z"  horiz-adv-x="1266" vert-adv-y="2048"  />

      
      <glyph glyph-name="uni5c" unicode="&#x5c;" d="M1073-220L805-220L448 1663L722 1663L1073-220Z"  horiz-adv-x="1266" vert-adv-y="2048"  />

      
      <glyph glyph-name="uni5d" unicode="&#x5d;" d="M600 1663L1226 1663L898-220L264-220L301 0L663 0L917 1443L562 1443L600 1663Z"  horiz-adv-x="1266" vert-adv-y="2048"  />

      
      <glyph glyph-name="uni5e" unicode="&#x5e;" d="M835 1125L518 614L224 614L759 1443L1016 1443L1265 614L988 614L853 1125L835 1125Z"  horiz-adv-x="1266" vert-adv-y="2048"  />

      
      <glyph glyph-name="uni5f" unicode="&#x5f;" d="M1091-354L53-354L93-110L1131-110L1091-354Z"  horiz-adv-x="1266" vert-adv-y="2048"  />

      
      <glyph glyph-name="uni60" unicode="&#x60;" d="M1065 1296L808 1296L590 1649L886 1649L1065 1296Z"  horiz-adv-x="1266" vert-adv-y="2048"  />

      
      <glyph glyph-name="uni61" unicode="&#x61;" d="M527-17Q382-17 289 69Q196 155 195 289Q194 464 319 559.50Q444 655 681 660L928 666L939 732Q944 760 944 773Q944 833 897 869.50Q850 906 772 906Q706 906 654 876Q602 846 582 795L314 795Q340 938 476.50 1031Q613 1124 797 1124Q986 1124 1099.50 1034Q1213 944 1213 794Q1213 744 1200 673L1082 0L822 0L848 145L826 145Q787 67 709 25Q631-17 527-17M633 202Q726 202 796 260Q866 318 882 410L898 490L698 486Q589 484 529.50 443Q470 402 469 329Q469 272 514 237Q559 202 633 202Z"  horiz-adv-x="1266" vert-adv-y="2048"  />

      
      <glyph glyph-name="uni62" unicode="&#x62;" d="M800-17Q673-17 587.50 45.50Q502 108 485 212L466 212L428 0L144 0L413 1523L697 1523L591 918L612 918Q651 1012 734.50 1066.50Q818 1121 924 1121Q1085 1121 1182 1020Q1279 919 1279 752Q1279 695 1267 630L1234 442Q1196 222 1082.50 102.50Q969-17 800-17M565.50 277Q565.50 277 595.75 248.50Q626 220 718 220Q810 220 874 280Q938 340 957 444L988 615Q994 655 994 698Q994 785 937.50 838Q881 891 788 891Q695 891 627.50 829Q560 767 541 664L511 495Q505 456 505 419Q505 334 565.50 277Z"  horiz-adv-x="1266" vert-adv-y="2048"  />

      
      <glyph glyph-name="uni63" unicode="&#x63;" d="M1261 710L994 710L994 727Q994 803 938 852.50Q882 902 796 902Q583 902 534 637L519 549Q505 474 505 426Q505 319 558 261Q611 203 710 203Q881 203 935 371L1201 371Q1167 191 1029 83.50Q891-24 694-24Q483-24 358 88.50Q233 201 233 390Q233 468 247 552Q266 668 273 696Q309 896 452.50 1013Q596 1130 807 1130Q1009 1130 1136 1028Q1263 926 1263 764Q1263 748 1261 710Z"  horiz-adv-x="1266" vert-adv-y="2048"  />

      
      <glyph glyph-name="uni64" unicode="&#x64;" d="M666 1121Q789 1121 876.50 1059Q964 997 980 896L996 896L1107 1523L1390 1523L1122 0L841 0L876 199L858 199Q822 100 737 41.50Q652-17 543-17Q379-17 281.50 83Q184 183 184 350Q184 411 195 484L223 664Q256 877 374.50 999Q493 1121 666 1121M747 890Q651 890 588.50 831Q526 772 506 664L477 501Q471 463 471 417Q471 331 526.50 276.50Q582 222 671 222Q769 222 836 283Q903 344 923 449L953 618Q959 652 959 689Q959 776 899 833Q839 890 747 890Z"  horiz-adv-x="1266" vert-adv-y="2048"  />

      
      <glyph glyph-name="uni65" unicode="&#x65;" d="M794 916Q698 916 633 862Q568 808 545 708Q536 674 535 661L986 661Q992 697 992 723Q999 809 944 862.50Q889 916 794 916M1182 310Q1156 160 1021 68Q886-24 692-24Q482-24 359.50 91.50Q237 207 237 404Q237 480 253 567L276 695Q312 892 455.50 1009Q599 1126 805 1126Q1005 1126 1131 1010Q1257 894 1249 718Q1249 660 1238 596L1221 486L507 486Q496 431 496 404Q491 306 548 247Q605 188 705 188Q783 188 837.50 220Q892 252 912 310L1182 310Z"  horiz-adv-x="1266" vert-adv-y="2048"  />

      
      <glyph glyph-name="uni66" unicode="&#x66;" d="M444 0L599 873L306 873L343 1092L637 1092L651 1170Q683 1358 792.50 1437.50Q902 1517 1126 1517Q1166 1517 1287 1514Q1408 1511 1423 1508L1389 1306Q1355 1314 1100 1314Q944 1314 922 1188L905 1092L1349 1092L1312 873L873 873L718 0L444 0Z"  horiz-adv-x="1266" vert-adv-y="2048"  />

      
      <glyph glyph-name="uni67" unicode="&#x67;" d="M893.50 834Q893.50 834 863.75 862Q834 890 742 890Q650 890 584.50 829Q519 768 500 662L479 537Q471 479 471 448Q471 358 528.50 303Q586 248 679 248Q771 248 837 309Q903 370 922 472L946 610Q953 660 953 691Q953 778 893.50 834M569-414Q364-414 234.50-328.50Q105-243 105-107Q105-85 106-83L373-83L373-87Q378-142 438.50-177Q499-212 591-212Q700-212 767-156Q834-100 853 7L891 222L873 222Q838 128 746.50 69Q655 10 543 10Q384 10 284 113Q184 216 184 381Q184 440 196 519L219 667Q253 879 371.50 1000Q490 1121 663 1121Q788 1121 873 1062.50Q958 1004 990 896L1009 896L1045 1103L1317 1103L1124 4Q1089-197 945-305.50Q801-414 569-414Z"  horiz-adv-x="1266" vert-adv-y="2048"  />

      
      <glyph glyph-name="uni68" unicode="&#x68;" d="M138 0L406 1523L673 1523L565 920L581 920Q628 1014 716.50 1068.50Q805 1123 913 1123Q1069 1123 1163 1030.50Q1257 938 1257 785Q1257 738 1243 656L1129 0L855 0L965 621Q974 677 974 706Q974 782 920 833Q866 884 782 884Q685 884 615.50 822.50Q546 761 525 648L411 0L138 0Z"  horiz-adv-x="1266" vert-adv-y="2048"  />

      
      <glyph glyph-name="uni69" unicode="&#x69;" d="M910 1328Q825 1328 773.50 1375.50Q722 1423 722 1501Q722 1579 773.50 1626.50Q825 1674 910 1674Q994 1674 1045.50 1626.50Q1097 1579 1097 1501Q1097 1423 1045.50 1375.50Q994 1328 910 1328M1120 0L167 0L204 218L558 218L679 884L343 884L379 1103L981 1103L824 218L1157 218L1120 0Z"  horiz-adv-x="1266" vert-adv-y="2048"  />

      
      <glyph glyph-name="uni6a" unicode="&#x6a;" d="M1157 1375.50Q1157 1375.50 1131 1351.75Q1105 1328 1021 1328Q937 1328 885 1375.50Q833 1423 833 1501Q833 1579 885 1626.50Q937 1674 1021 1674Q1105 1674 1157 1626.50Q1209 1579 1209 1501Q1209 1423 1157 1375.50M1099 1103L911 44Q873-175 760-267.50Q647-360 416-360Q188-360 112-354L153-113Q220-119 440-119Q534-119 582.50-80.50Q631-42 646 42L796 884L342 884L380 1103L1099 1103Z"  horiz-adv-x="1266" vert-adv-y="2048"  />

      
      <glyph glyph-name="uni6b" unicode="&#x6b;" d="M540 370L474 0L201 0L469 1523L743 1523L593 678L609 678L1066 1103L1408 1103L895 630L1232 0L927 0L668 484L540 370Z"  horiz-adv-x="1266" vert-adv-y="2048"  />

      
      <glyph glyph-name="uni6c" unicode="&#x6c;" d="M1120 0L167 0L204 218L554 218L749 1305L417 1305L454 1523L1059 1523L828 218L1157 218L1120 0Z"  horiz-adv-x="1266" vert-adv-y="2048"  />

      
      <glyph glyph-name="uni6d" unicode="&#x6d;" d="M443 759L308 0L76 0L270 1103L504 1103L474 930L504 930Q535 1024 591 1075Q647 1126 721 1126Q803 1126 852 1073Q901 1020 903 930L932 930Q964 1024 1021.50 1075Q1079 1126 1153 1126Q1241 1126 1291.50 1071Q1342 1016 1342 921Q1342 868 1330 799L1190 0L958 0L1091 756Q1097 789 1097 806Q1097 846 1074.50 868Q1052 890 1014 890Q965 890 930.50 857.50Q896 825 884 764L748 0L520 0L653 756Q659 788 659 806Q659 845 636.50 867.50Q614 890 575 890Q525 890 490 856Q455 822 443 759Z"  horiz-adv-x="1266" vert-adv-y="2048"  />

      
      <glyph glyph-name="uni6e" unicode="&#x6e;" d="M142 0L335 1103L601 1103L569 920L584 920Q627 1014 713.50 1070Q800 1126 913 1126Q1070 1126 1161 1032.50Q1252 939 1252 785Q1252 726 1239 654L1124 0L850 0L960 621Q968 671 968 710Q968 788 918 837.50Q868 887 783 887Q687 887 618.50 824Q550 761 529 648L415 0L142 0Z"  horiz-adv-x="1266" vert-adv-y="2048"  />

      
      <glyph glyph-name="uni6f" unicode="&#x6f;" d="M689-23Q478-23 345 102Q212 227 212 416Q212 479 221 528L249 688Q285 892 424 1009Q563 1126 766 1126Q981 1126 1115.50 1001Q1250 876 1250 685Q1250 633 1240 576L1212 416Q1175 209 1036.50 93Q898-23 689-23M763 902Q663 902 598.50 838.50Q534 775 512 654L486 504Q478 465 478 422Q478 323 540 261.50Q602 200 699 200Q800 200 864 264Q928 328 950 452L977 603Q983 642 983 681Q983 779 922 840.50Q861 902 763 902Z"  horiz-adv-x="1266" vert-adv-y="2048"  />

      
      <glyph glyph-name="uni70" unicode="&#x70;" d="M794-17Q665-17 579.50 45.50Q494 108 481 206L465 206L362-367L79-367L338 1103L619 1103L584 903L602 903Q639 1004 726 1062.50Q813 1121 918 1121Q1076 1121 1176.50 1023.50Q1277 926 1277 754Q1277 697 1265 620L1233 440Q1195 222 1079.50 102.50Q964-17 794-17M562.50 278.50Q562.50 278.50 591.75 250.25Q621 222 715 222Q809 222 872.50 279.50Q936 337 956 447L985 611Q991 648 991 695Q991 780 936.50 834.50Q882 889 791 889Q695 889 627 830Q559 771 539 663L509 494Q504 465 504 419Q504 335 562.50 278.50Z"  horiz-adv-x="1266" vert-adv-y="2048"  />

      
      <glyph glyph-name="uni71" unicode="&#x71;" d="M663 1121Q788 1121 872 1060Q956 999 975 894L994 894L1031 1103L1316 1103L1057-367L773-367L870 188L849 188Q810 93 726 38Q642-17 536-17Q375-17 278 83.50Q181 184 181 352Q181 405 193 474L226 662Q263 880 378 1000.50Q493 1121 663 1121M895.50 834.50Q895.50 834.50 865.25 862.75Q835 891 743 891Q651 891 587 831.50Q523 772 504 668L473 497Q467 458 467 414Q467 327 523.50 274Q580 221 674 221Q766 221 833.50 282.50Q901 344 920 447L950 617Q956 656 956 692Q956 778 895.50 834.50Z"  horiz-adv-x="1266" vert-adv-y="2048"  />

      
      <glyph glyph-name="uni72" unicode="&#x72;" d="M758 820L800 820Q905 1132 1186 1132Q1291 1132 1367 1084L1315 791Q1234 844 1100 844Q937 844 833 754Q729 664 698 497L647 201L967 201L932 0L612 0L350 0L140 0L176 201L385 201L509 901L280 901L314 1103L807 1103L758 820Z"  horiz-adv-x="1266" vert-adv-y="2048"  />

      
      <glyph glyph-name="uni73" unicode="&#x73;" d="M321 771Q321 933 449 1031Q577 1129 788 1129Q974 1129 1092 1047Q1210 965 1213 833Q1213 808 1210 791L952 791L952 799Q948 855 900 887.50Q852 920 773 920Q691 920 641 888.50Q591 857 591 805Q591 726 729 684L878 637Q1027 590 1093.50 519Q1160 448 1160 337Q1160 178 1025.50 77Q891-24 678-24Q475-24 346.50 62Q218 148 215 285Q215 293 217 317L485 317L485 309Q490 252 544.50 219Q599 186 688 186Q777 186 827.50 217.50Q878 249 878 304Q878 344 845 371.50Q812 399 735 424L590 471Q452 517 386.50 590Q321 663 321 771Z"  horiz-adv-x="1266" vert-adv-y="2048"  />

      
      <glyph glyph-name="uni74" unicode="&#x74;" d="M654 1418L921 1418L865 1092L1276 1092L1239 873L834 873L739 352Q735 332 735 319Q735 216 876 216Q1084 216 1108 218L1071 2Q1049-2 774-2Q616-2 535.50 61Q455 124 455 248Q455 298 465 355L560 873L273 873L310 1092L598 1092L654 1418Z"  horiz-adv-x="1266" vert-adv-y="2048"  />

      
      <glyph glyph-name="uni75" unicode="&#x75;" d="M1318 1103L1125 0L859 0L891 183L876 183Q833 89 746.50 33Q660-23 547-23Q390-23 299 70.50Q208 164 208 318Q208 377 221 449L336 1103L610 1103L500 482Q492 432 492 393Q492 315 542 265.50Q592 216 677 216Q773 216 841.50 279Q910 342 931 455L1045 1103L1318 1103Z"  horiz-adv-x="1266" vert-adv-y="2048"  />

      
      <glyph glyph-name="uni76" unicode="&#x76;" d="M287 1103L576 1103L671 267L688 267L1071 1103L1366 1103L790 0L478 0L287 1103Z"  horiz-adv-x="1266" vert-adv-y="2048"  />

      
      <glyph glyph-name="uni77" unicode="&#x77;" d="M1439 1103L1025 0L785 0L771 740L761 740L479 0L241 0L214 1103L470 1103L419 327L455 327L711 1099L937 1099L919 327L954 327L1175 1103L1439 1103Z"  horiz-adv-x="1266" vert-adv-y="2048"  />

      
      <glyph glyph-name="uni78" unicode="&#x78;" d="M707 370L691 370L405 0L109 0L555 546L300 1103L607 1103L753 731L770 731L1046 1103L1352 1103L904 558L1160 0L864 0L707 370Z"  horiz-adv-x="1266" vert-adv-y="2048"  />

      
      <glyph glyph-name="uni79" unicode="&#x79;" d="M244-398Q150-398 136-396L175-172Q187-175 237-175Q320-175 370.50-146Q421-117 454-50L473-8L278 1103L573 1103L668 252L684 252L1079 1103L1375 1103L798-14Q688-229 566-313.50Q444-398 244-398Z"  horiz-adv-x="1266" vert-adv-y="2048"  />

      
      <glyph glyph-name="uni7a" unicode="&#x7a;" d="M176 0L204 163L891 865L894 882L341 882L378 1103L1272 1103L1241 919L573 238L570 221L1127 221L1090 0L176 0Z"  horiz-adv-x="1266" vert-adv-y="2048"  />

      
      <glyph glyph-name="uni7b" unicode="&#x7b;" d="M1004-220L844-220Q668-220 590.50-161Q513-102 513 34Q513 83 527 167L562 367Q568 400 568 433Q568 519 506.50 559.50Q445 600 312 600L359 878Q528 878 597 920Q666 962 686 1078L725 1299Q761 1506 856 1583.50Q951 1661 1170 1661L1331 1661L1294 1437L1198 1437Q1089 1437 1053 1403.50Q1017 1370 995 1249L946 970Q928 869 846.50 811.50Q765 754 628 747L624 729Q732 720 797 667Q862 614 862 533Q862 487 858 468L812 210Q801 147 801 111Q801 50 833 26Q865 2 946 2L1041 2L1004-220Z"  horiz-adv-x="1266" vert-adv-y="2048"  />

      
      <glyph glyph-name="uni7c" unicode="&#x7c;" d="M684-483L412-483L788 1663L1060 1663L684-483Z"  horiz-adv-x="1266" vert-adv-y="2048"  />

      
      <glyph glyph-name="uni7d" unicode="&#x7d;" d="M513 1660L673 1660Q849 1660 926.50 1601Q1004 1542 1004 1406Q1004 1357 990 1273L955 1073Q949 1040 949 1007Q949 921 1010.50 880.50Q1072 840 1205 840L1158 562Q989 562 920 520Q851 478 831 362L792 141Q756-66 661-143.50Q566-221 347-221L186-221L223 3L319 3Q428 3 464 36.50Q500 70 522 191L571 470Q589 571 670.50 628.50Q752 686 889 693L893 711Q785 720 720 773Q655 826 655 907Q655 953 659 972L705 1230Q716 1293 716 1329Q716 1390 684 1414Q652 1438 571 1438L476 1438L513 1660Z"  horiz-adv-x="1266" vert-adv-y="2048"  />

      
      <glyph glyph-name="uni7e" unicode="&#x7e;" d="M549 962Q620 962 678.50 933Q737 904 809 832Q852 789 882 771.50Q912 754 943 754Q1049 754 1055 932L1279 932Q1281 900 1281 884Q1280 704 1197.50 597.50Q1115 491 975 491Q904 491 845 520.50Q786 550 715 621Q670 666 641.50 683Q613 700 583 700Q473 700 469 522L243 522Q240 570 240 571Q241 750 324.50 856Q408 962 549 962Z"  horiz-adv-x="1266" vert-adv-y="2048"  />

      
      <glyph glyph-name="unia1" unicode="&#xa1;" d="M778-350L461-350L663 644L929 644L778-350M722.50 1074Q722.50 1074 748.75 1099Q775 1124 851 1124Q927 1124 979 1073.50Q1031 1023 1031 950Q1031 877 979 826.50Q927 776 851 776Q775 776 722.50 826Q670 876 670 950Q670 1024 722.50 1074Z"  horiz-adv-x="1266" vert-adv-y="2048"  />

      
      <glyph glyph-name="unia2" unicode="&#xa2;" d="M1225 511Q1197 353 1084 251.50Q971 150 801 130L768-58L528-58L565 150Q431 191 356 293Q281 395 281 537Q281 620 295 712L321 847Q354 1023 469.50 1133Q585 1243 761 1266L793 1450L1032 1450L997 1251Q1148 1211 1221.50 1107.50Q1295 1004 1282 850L1016 850Q1016 929 967 974Q918 1019 831 1019Q736 1019 672 959Q608 899 588 790L569 687Q557 624 557 575Q557 478 608.50 424.50Q660 371 755 371Q834 371 886.50 407Q939 443 957 511L1225 511Z"  horiz-adv-x="1266" vert-adv-y="2048"  />

      
      <glyph glyph-name="unia3" unicode="&#xa3;" d="M1227 268L1183 0L84 0L125 249Q251 259 340.50 335.50Q430 412 458 532Q471 576 474 632L198 632L235 852L451 852Q433 966 433 1025Q433 1238 585 1355.50Q737 1473 1014 1473Q1215 1473 1367 1415L1325 1161Q1172 1217 1019 1217Q876 1217 799 1151.50Q722 1086 722 963Q722 915 732 852L1142 852L1106 632L755 632Q758 576 743 528Q728 444 679 382.50Q630 321 552 290L549 268L1227 268Z"  horiz-adv-x="1266" vert-adv-y="2048"  />

      
      <glyph glyph-name="unia4" unicode="&#xa4;" d="M1324 914L1159 793Q1202 688 1181 562Q1159 438 1080 352L1195 184L1004 38L889 215Q782 173 661 194Q546 213 456 291L287 164L154 369L320 489Q278 597 300 721Q321 844 398 930L283 1099L476 1245L589 1068Q699 1110 816 1090Q938 1068 1023 992L1192 1120L1324 914M700 420Q793 404 868 457Q943 510 960 604Q977 697 925 772.50Q873 848 780 864Q686 880 611 826.50Q536 773 519 680Q502 586 553.50 511Q605 436 700 420Z"  horiz-adv-x="1266" vert-adv-y="2048"  />

      
      <glyph glyph-name="unia5" unicode="&#xa5;" d="M1497 1443L967 674L1166 674L1136 501L864 501L841 372L1113 372L1083 199L810 199L775 0L492 0L527 199L256 199L285 372L558 372L581 501L309 501L338 674L539 674L274 1443L571 1443L761 826L777 826L1181 1443L1497 1443Z"  horiz-adv-x="1266" vert-adv-y="2048"  />

      
      <glyph glyph-name="unia6" unicode="&#xa6;" d="M907 782L635 782L788 1663L1060 1663L907 782M684-484L412-484L565 398L837 398L684-484Z"  horiz-adv-x="1266" vert-adv-y="2048"  />

      
      <glyph glyph-name="unia7" unicode="&#xa7;" d="M629-291Q443-291 326.50-204Q210-117 210 23Q210 52 213 70L462 70Q462 5 512.50-34Q563-73 646-73Q718-73 764-39Q810-5 810 48Q810 88 782 116Q754 144 689 170L525 245Q401 298 343 364.50Q285 431 285 524Q285 632 354.50 712Q424 792 545 823L548 841Q467 892 430 949.50Q393 1007 393 1082Q393 1240 516 1339.50Q639 1439 835 1439Q1026 1439 1138 1353.50Q1250 1268 1250 1122Q1250 1098 1247 1083L998 1083Q998 1144 950.50 1182.50Q903 1221 826 1221Q752 1221 705 1187Q658 1153 658 1100Q658 1060 686 1032Q714 1004 778 979L939 905Q1066 847 1123.50 778.50Q1181 710 1181 614Q1181 511 1104 429Q1027 347 907 321L904 302Q1076 226 1076 73Q1076-90 952.50-190.50Q829-291 629-291M653 467L770 414Q844 430 886 468.50Q928 507 928 561Q928 643 814 684L698 734Q632 720 587.50 679.50Q543 639 543 591Q543 514 653 467Z"  horiz-adv-x="1266" vert-adv-y="2048"  />

      
      <glyph glyph-name="unia8" unicode="&#xa8;" d="M761.50 1344Q761.50 1344 739.75 1321.50Q718 1299 658 1299Q598 1299 554.50 1344Q511 1389 511 1451Q511 1513 554.50 1558Q598 1603 658 1603Q718 1603 761.50 1558Q805 1513 805 1451Q805 1389 761.50 1344M1119 1299Q1060 1299 1016 1344Q972 1389 972 1451Q972 1513 1016 1558Q1060 1603 1119 1603Q1179 1603 1222.50 1558Q1266 1513 1266 1451Q1266 1389 1222.50 1344Q1179 1299 1119 1299Z"  horiz-adv-x="1266" vert-adv-y="2048"  />

      
      <glyph glyph-name="unia9" unicode="&#xa9;" d="M1028.50 254.50Q1028.50 254.50 967.75 218.75Q907 183 760 183Q613 183 491.50 254.50Q370 326 300.50 449.50Q231 573 231 722Q231 871 300.50 994.50Q370 1118 491.50 1189Q613 1260 760 1260Q907 1260 1028.50 1189Q1150 1118 1219.50 994.50Q1289 871 1289 722Q1289 573 1219.50 449.50Q1150 326 1028.50 254.50M459 409Q459 409 520.50 345Q582 281 760 281Q938 281 1061 409Q1184 537 1184 722Q1184 907 1061 1034.50Q938 1162 760 1162Q582 1162 459 1034.50Q336 907 336 722Q336 537 459 409M1024 790L881 790Q873 881 784 881Q723 881 685 824.50Q647 768 647 677Q647 563 751 563Q827 563 852 632L995 632Q973 541 906.50 489.50Q840 438 746 438Q633 438 567 498Q501 558 501 661Q501 820 580.50 912.50Q660 1005 795 1005Q901 1005 964.50 946Q1028 887 1024 790Z"  horiz-adv-x="1266" vert-adv-y="2048"  />

      
      <glyph glyph-name="uniaa" unicode="&#xaa;" d="M626 504Q505 504 430 573Q355 642 355 754Q355 904 463 986Q571 1068 766 1068L969 1068L979 1119Q983 1145 983 1159Q983 1205 949 1231.50Q915 1258 857 1258Q747 1258 714 1177L464 1177Q496 1310 605.50 1387.50Q715 1465 868 1465Q1041 1465 1143.50 1388.50Q1246 1312 1246 1182Q1246 1146 1239 1117L1132 512L876 512L895 616L878 616Q840 563 773 533.50Q706 504 626 504M741 691Q816 691 870 731.50Q924 772 937 839L950 910L781 910Q703 910 658 877Q613 844 613 788Q613 744 648 717.50Q683 691 741 691Z"  horiz-adv-x="1266" vert-adv-y="2048"  />

      
      <glyph glyph-name="uniab" unicode="&#xab;" d="M455 642L453 635L718 218L461 218L194 636L196 643L610 1061L872 1061L455 642M954 642L952 635L1217 218L960 218L693 636L695 643L1109 1061L1371 1061L954 642Z"  horiz-adv-x="1266" vert-adv-y="2048"  />

      
      <glyph glyph-name="uniac" unicode="&#xac;" d="M1297 766L1183 107L937 107L1008 518L196 518L237 766L1297 766Z"  horiz-adv-x="1266" vert-adv-y="2048"  />

      
      <glyph glyph-name="uniae" unicode="&#xae;" d="M672 734L546 734L638 1255L892 1255Q968 1255 1010 1215.50Q1052 1176 1052 1104Q1052 981 922 927L1018 734L861 734L780 906L703 906L672 734M744 1139L721 1010L822 1010Q865 1010 889 1029.50Q913 1049 913 1085Q913 1139 845 1139L744 1139M1075.50 523.50Q1075.50 523.50 1014.75 487.75Q954 452 807 452Q660 452 538.50 523.50Q417 595 347.50 718.50Q278 842 278 991Q278 1140 347.50 1263.50Q417 1387 538.50 1458.50Q660 1530 807 1530Q954 1530 1075.50 1458.50Q1197 1387 1266.50 1263.50Q1336 1140 1336 991Q1336 842 1266.50 718.50Q1197 595 1075.50 523.50M506 678Q506 678 567.50 614Q629 550 807 550Q985 550 1108 678Q1231 806 1231 991Q1231 1176 1108 1304Q985 1432 807 1432Q629 1432 506 1304Q383 1176 383 991Q383 806 506 678Z"  horiz-adv-x="1266" vert-adv-y="2048"  />

      
      <glyph glyph-name="uniaf" unicode="&#xaf;" d="M1232 1355L513 1355L545 1540L1264 1540L1232 1355Z"  horiz-adv-x="1266" vert-adv-y="2048"  />

      
      <glyph glyph-name="unib0" unicode="&#xb0;" d="M1088 901Q1088 901 1037.50 850Q987 799 836 799Q685 799 584.50 901Q484 1003 484 1156Q484 1309 584.50 1411Q685 1513 836 1513Q987 1513 1088 1411Q1189 1309 1189 1156Q1189 1003 1088 901M836 974Q914 974 964 1025Q1014 1076 1014 1156Q1014 1236 964 1287Q914 1338 836 1338Q759 1338 709 1286.50Q659 1235 659 1156Q659 1077 709 1025.50Q759 974 836 974Z"  horiz-adv-x="1266" vert-adv-y="2048"  />

      
      <glyph glyph-name="unib1" unicode="&#xb1;" d="M1146 68L146 68L185 298L1185 298L1146 68M872 650L830 420L582 420L624 650L248 650L287 882L663 882L704 1111L953 1111L911 882L1287 882L1248 650L872 650Z"  horiz-adv-x="1266" vert-adv-y="2048"  />

      
      <glyph glyph-name="unib4" unicode="&#xb4;" d="M855 1296L589 1296L892 1649L1197 1649L855 1296Z"  horiz-adv-x="1266" vert-adv-y="2048"  />

      
      <glyph glyph-name="unib5" unicode="&#xb5;" d="M351-367L85-367L344 1103L610 1103L498 464Q490 416 490 376Q490 307 535 262Q580 217 656 217Q747 217 808 278Q869 339 888 445L1004 1103L1272 1103L1139 355Q1130 302 1130 275Q1130 208 1208 208Q1236 208 1254 213L1219 10Q1165-10 1091-10Q987-10 934 34Q881 78 875 169Q875 170 874.50 178Q874 186 874 188L859 188Q834 85 772 30.50Q710-24 622-24Q560-24 512 0.50Q464 25 442 70L428 70L351-367Z"  horiz-adv-x="1266" vert-adv-y="2048"  />

      
      <glyph glyph-name="uni03BC" unicode="&#x03BC;" d="M351-367L85-367L344 1103L610 1103L498 464Q490 416 490 376Q490 307 535 262Q580 217 656 217Q747 217 808 278Q869 339 888 445L1004 1103L1272 1103L1139 355Q1130 302 1130 275Q1130 208 1208 208Q1236 208 1254 213L1219 10Q1165-10 1091-10Q987-10 934 34Q881 78 875 169Q875 170 874.50 178Q874 186 874 188L859 188Q834 85 772 30.50Q710-24 622-24Q560-24 512 0.50Q464 25 442 70L428 70L351-367Z"  horiz-adv-x="1266" vert-adv-y="2048"  />

      
      <glyph glyph-name="unib6" unicode="&#xb6;" d="M764-220L552-220L669 436Q476 463 353.50 602Q231 741 231 932Q231 1156 375.50 1299.50Q520 1443 745 1443L1055 1443L764-220M925-220L1216 1443L1429 1443L1138-220L925-220Z"  horiz-adv-x="1266" vert-adv-y="2048"  />

      
      <glyph glyph-name="unib7" unicode="&#xb7;" d="M894.50 602Q894.50 602 870.25 577.50Q846 553 763 553Q680 553 631.50 602Q583 651 583 733Q583 815 631.50 864.50Q680 914 763 914Q846 914 894.50 864.50Q943 815 943 733Q943 651 894.50 602Z"  horiz-adv-x="1266" vert-adv-y="2048"  />

      
      <glyph glyph-name="unib8" unicode="&#xb8;" d="M478-234L495-117L563 0L730 0L664-114Q742-123 787-164.50Q832-206 832-269Q832-376 757.50-433.50Q683-491 545-491Q475-491 397-469L420-334Q463-351 541-351Q594-351 624-335Q654-319 654-290Q654-234 535-234L478-234Z"  horiz-adv-x="1266" vert-adv-y="2048"  />

      
      <glyph glyph-name="uniba" unicode="&#xba;" d="M608 895Q608 709 772 709Q858 709 915 775Q972 841 994 967Q1004 1018 1004 1064Q1004 1155 961.50 1202.50Q919 1250 839 1250Q754 1250 696.50 1183.50Q639 1117 618 992Q608 932 608 895M762 496Q569 496 457.50 603Q346 710 346 893Q346 968 361 1036Q401 1233 532 1348.50Q663 1464 850 1464Q1043 1464 1154.50 1357.50Q1266 1251 1266 1067Q1266 1002 1254 939Q1217 736 1084.50 616Q952 496 762 496Z"  horiz-adv-x="1266" vert-adv-y="2048"  />

      
      <glyph glyph-name="unibb" unicode="&#xbb;" d="M1036 637L1038 644L773 1061L1030 1061L1297 643L1295 636L881 218L619 218L1036 637M537 637L539 644L274 1061L531 1061L798 643L796 636L382 218L120 218L537 637Z"  horiz-adv-x="1266" vert-adv-y="2048"  />

      
      <glyph glyph-name="unibc" unicode="&#xbc;" d="M972 0L991 107L657 107L690 303Q824 499 997 706L1312 706L1236 278L1314 278L1290 138L1213 138L1188 0L972 0M871 281L870 277L1027 277L1078 554L1074 554Q938 386 871 281M309 739L400 1246L396 1246L205 1115L238 1309L440 1443L659 1443L535 739L309 739M1520 1443L1492 1281L0 0L29 162L1520 1443Z"  horiz-adv-x="1266" vert-adv-y="2048"  />

      
      <glyph glyph-name="unibd" unicode="&#xbd;" d="M309 739L400 1246L396 1246L205 1115L238 1309L440 1443L659 1443L535 739L309 739M807 478Q813 587 899 656.50Q985 726 1114 726Q1236 726 1312.50 670.50Q1389 615 1389 526Q1389 460 1351 405Q1313 350 1225 291L1062 182L1061 177L1329 177L1299 0L737 0L765 162L1091 405Q1163 456 1163 497Q1163 522 1144.50 538Q1126 554 1096 554Q1064 554 1041.50 533.50Q1019 513 1015 478L807 478M1520 1443L1492 1281L0 0L29 162L1520 1443Z"  horiz-adv-x="1266" vert-adv-y="2048"  />

      
      <glyph glyph-name="unibe" unicode="&#xbe;" d="M972 0L991 107L657 107L690 303Q824 499 997 706L1312 706L1236 278L1314 278L1290 138L1213 138L1188 0L972 0M871 281L870 277L1027 277L1078 554L1074 554Q947 399 871 281M345 1025L370 1176L454 1176Q491 1176 516 1195Q541 1214 541 1243Q541 1267 521 1282Q501 1297 469 1297Q396 1297 380 1236L184 1236Q201 1346 280.50 1407.50Q360 1469 485 1469Q605 1469 678.50 1418Q752 1367 752 1284Q752 1213 702.50 1163Q653 1113 577 1107L575 1093Q641 1085 678.50 1047Q716 1009 716 951Q716 853 629 786Q542 719 415 719Q276 719 199 774Q122 829 122 929Q122 950 125 969L336 969Q335 969 335 961Q335 935 356 918.50Q377 902 411 902Q448 902 471.50 921Q495 940 495 971Q495 995 477 1010Q459 1025 428 1025L345 1025M1520 1443L1492 1281L0 0L29 162L1520 1443Z"  horiz-adv-x="1266" vert-adv-y="2048"  />

      
      <glyph glyph-name="unibf" unicode="&#xbf;" d="M694 1071.50Q694 1071.50 720 1096.75Q746 1122 822 1122Q898 1122 950 1071.50Q1002 1021 1002 948Q1002 875 950 824.50Q898 774 822 774Q746 774 694 824.50Q642 875 642 948Q642 1021 694 1071.50M1112 26Q1082-161 942.50-270Q803-379 599-375Q400-372 277-267Q154-162 162-3Q173 246 435 374Q548 429 593 477Q638 525 646 601L651 641L914 641L910 595Q898 455 845.50 377Q793 299 672 242Q565 190 519 142.50Q473 95 468 28Q461-39 506.50-82Q552-125 632-127Q714-129 770.50-88Q827-47 843 26L1112 26Z"  horiz-adv-x="1266" vert-adv-y="2048"  />

      
      <glyph glyph-name="unic0" unicode="&#xc0;" d="M1029 1602L776 1602L537 1920L826 1920L1029 1602M578 575L893 575L848 1160L835 1160L578 575M938 0L911 353L481 353L326 0L32 0L719 1443L1055 1443L1232 0L938 0Z"  horiz-adv-x="1266" vert-adv-y="2048"  />

      
      <glyph glyph-name="unic1" unicode="&#xc1;" d="M1373 1920L1025 1602L762 1602L1075 1920L1373 1920M578 575L893 575L848 1160L835 1160L578 575M719 1443L1055 1443L1232 0L938 0L911 353L481 353L326 0L32 0L719 1443Z"  horiz-adv-x="1266" vert-adv-y="2048"  />

      
      <glyph glyph-name="unic2" unicode="&#xc2;" d="M963 1795L776 1601L520 1601L858 1936L1114 1936L1336 1601L1098 1601L980 1795L963 1795M578 575L893 575L848 1160L835 1160L578 575M719 1443L1055 1443L1232 0L938 0L911 353L481 353L326 0L32 0L719 1443Z"  horiz-adv-x="1266" vert-adv-y="2048"  />

      
      <glyph glyph-name="unic3" unicode="&#xc3;" d="M1158 1885L1330 1885Q1314 1753 1242.50 1670.50Q1171 1588 1068 1588Q1024 1588 988 1603Q952 1618 927.50 1640Q903 1662 882 1683.50Q861 1705 838 1720Q815 1735 791 1735Q716 1735 698 1601L525 1601Q542 1740 612.50 1821.50Q683 1903 788 1903Q832 1903 869.50 1888Q907 1873 931.50 1851.50Q956 1830 977 1808Q998 1786 1020.50 1771Q1043 1756 1065 1756Q1139 1756 1158 1885M578 575L893 575L848 1160L835 1160L578 575M719 1443L1055 1443L1232 0L938 0L911 353L481 353L326 0L32 0L719 1443Z"  horiz-adv-x="1266" vert-adv-y="2048"  />

      
      <glyph glyph-name="unic4" unicode="&#xc4;" d="M813.50 1664Q813.50 1664 791.75 1641.50Q770 1619 710 1619Q650 1619 606.50 1664Q563 1709 563 1771Q563 1833 606.50 1878Q650 1923 710 1923Q770 1923 813.50 1878Q857 1833 857 1771Q857 1709 813.50 1664M578 575L893 575L848 1160L835 1160L578 575M719 1443L1055 1443L1232 0L938 0L911 353L481 353L326 0L32 0L719 1443M1171 1923Q1231 1923 1274.50 1878Q1318 1833 1318 1771Q1318 1709 1274.50 1664Q1231 1619 1171 1619Q1112 1619 1068 1664Q1024 1709 1024 1771Q1024 1833 1068 1878Q1112 1923 1171 1923Z"  horiz-adv-x="1266" vert-adv-y="2048"  />

      
      <glyph glyph-name="unic5" unicode="&#xc5;" d="M996 1813.50Q996 1813.50 982.50 1826.75Q969 1840 928 1840Q887 1840 860 1813.50Q833 1787 833 1747Q833 1707 860 1680Q887 1653 928 1653Q970 1653 996.50 1679.50Q1023 1706 1023 1747Q1023 1787 996 1813.50M929 1549Q842 1549 784 1606Q726 1663 726 1748Q726 1833 783.50 1888.50Q841 1944 929 1944Q1015 1944 1072.50 1888.50Q1130 1833 1130 1748Q1130 1663 1072.50 1606Q1015 1549 929 1549M578 575L893 575L848 1160L835 1160L578 575M938 0L911 353L481 353L326 0L32 0L719 1443L1055 1443L1232 0L938 0Z"  horiz-adv-x="1266" vert-adv-y="2048"  />

      
      <glyph glyph-name="unic6" unicode="&#xc6;" d="M716 589L820 1174L734 1174L511 589L716 589M1460 1198L1080 1198L1014 840L1359 840L1320 612L975 612L908 245L1289 245L1247 0L611 0L674 353L421 353L286 0L2 0L603 1443L1501 1443L1460 1198Z"  horiz-adv-x="1266" vert-adv-y="2048"  />

      
      <glyph glyph-name="unic7" unicode="&#xc7;" d="M1368 927L1081 927Q1084 960 1084 995Q1084 1094 1021 1154.50Q958 1215 854 1215Q735 1215 655 1132Q575 1049 547 895L498 609Q485 544 485 484Q485 366 551 297.50Q617 229 730 229Q955 229 1004 479L1006 495L1295 495Q1295 468 1290 450Q1256 228 1107 101Q958-26 731-30L682-114Q760-123 805-164.50Q850-206 850-269Q850-376 775.50-433.50Q701-491 563-491Q493-491 415-469L438-334Q481-351 559-351Q612-351 642-335Q672-319 672-290Q672-234 553-234L496-234L513-117L573-14Q397 27 295 160.50Q193 294 193 487Q193 569 206 637L254 916Q301 1187 457.50 1329.50Q614 1472 864 1472Q1090 1472 1232 1341.50Q1374 1211 1374 1003Q1374 978 1368 927Z"  horiz-adv-x="1266" vert-adv-y="2048"  />

      
      <glyph glyph-name="unic8" unicode="&#xc8;" d="M1149 245L1108 0L198 0L452 1443L1362 1443L1321 1198L696 1198L631 843L1219 843L1181 616L593 616L524 245L1149 245M834 1920L1037 1602L784 1602L545 1920L834 1920Z"  horiz-adv-x="1266" vert-adv-y="2048"  />

      
      <glyph glyph-name="unic9" unicode="&#xc9;" d="M770 1602L1083 1920L1381 1920L1033 1602L770 1602M1149 245L1108 0L198 0L452 1443L1362 1443L1321 1198L696 1198L631 843L1219 843L1181 616L593 616L524 245L1149 245Z"  horiz-adv-x="1266" vert-adv-y="2048"  />

      
      <glyph glyph-name="unica" unicode="&#xca;" d="M1122 1936L1344 1601L1106 1601L988 1795L971 1795L784 1601L528 1601L866 1936L1122 1936M1149 245L1108 0L198 0L452 1443L1362 1443L1321 1198L696 1198L631 843L1219 843L1181 616L593 616L524 245L1149 245Z"  horiz-adv-x="1266" vert-adv-y="2048"  />

      
      <glyph glyph-name="unicb" unicode="&#xcb;" d="M821.50 1664Q821.50 1664 799.75 1641.50Q778 1619 718 1619Q658 1619 614.50 1664Q571 1709 571 1771Q571 1833 614.50 1878Q658 1923 718 1923Q778 1923 821.50 1878Q865 1833 865 1771Q865 1709 821.50 1664M1179 1619Q1120 1619 1076 1664Q1032 1709 1032 1771Q1032 1833 1076 1878Q1120 1923 1179 1923Q1239 1923 1282.50 1878Q1326 1833 1326 1771Q1326 1709 1282.50 1664Q1239 1619 1179 1619M1149 245L1108 0L198 0L452 1443L1362 1443L1321 1198L696 1198L631 843L1219 843L1181 616L593 616L524 245L1149 245Z"  horiz-adv-x="1266" vert-adv-y="2048"  />

      
      <glyph glyph-name="unicc" unicode="&#xcc;" d="M827 1920L1030 1602L777 1602L538 1920L827 1920M1074 0L192 0L233 244L532 244L705 1199L406 1199L446 1443L1328 1443L1287 1199L988 1199L816 244L1115 244L1074 0Z"  horiz-adv-x="1266" vert-adv-y="2048"  />

      
      <glyph glyph-name="unicd" unicode="&#xcd;" d="M1074 0L192 0L233 244L532 244L705 1199L406 1199L446 1443L1328 1443L1287 1199L988 1199L816 244L1115 244L1074 0M763 1602L1076 1920L1374 1920L1026 1602L763 1602Z"  horiz-adv-x="1266" vert-adv-y="2048"  />

      
      <glyph glyph-name="unice" unicode="&#xce;" d="M1074 0L192 0L233 244L532 244L705 1199L406 1199L446 1443L1328 1443L1287 1199L988 1199L816 244L1115 244L1074 0M1115 1936L1337 1601L1099 1601L981 1795L964 1795L777 1601L521 1601L859 1936L1115 1936Z"  horiz-adv-x="1266" vert-adv-y="2048"  />

      
      <glyph glyph-name="unicf" unicode="&#xcf;" d="M1074 0L192 0L233 244L532 244L705 1199L406 1199L446 1443L1328 1443L1287 1199L988 1199L816 244L1115 244L1074 0M814.50 1664Q814.50 1664 792.75 1641.50Q771 1619 711 1619Q651 1619 607.50 1664Q564 1709 564 1771Q564 1833 607.50 1878Q651 1923 711 1923Q771 1923 814.50 1878Q858 1833 858 1771Q858 1709 814.50 1664M1172 1619Q1113 1619 1069 1664Q1025 1709 1025 1771Q1025 1833 1069 1878Q1113 1923 1172 1923Q1232 1923 1275.50 1878Q1319 1833 1319 1771Q1319 1709 1275.50 1664Q1232 1619 1172 1619Z"  horiz-adv-x="1266" vert-adv-y="2048"  />

      
      <glyph glyph-name="unid0" unicode="&#xd0;" d="M447 245L594 245Q775 245 877 348.50Q979 452 1017 668Q1017 669 1024 709.50Q1031 750 1032 763Q1037 818 1037 872Q1037 1031 958.50 1116Q880 1201 734 1201L619 1201L555 843L788 843L750 613L513 613L447 245M375 1443L783 1443Q1045 1443 1190 1297.50Q1335 1152 1335 890Q1335 822 1329 766Q1327 736 1311 651Q1198 0 634 0L121 0L229 613L108 613L146 843L269 843L375 1443Z"  horiz-adv-x="1266" vert-adv-y="2048"  />

      
      <glyph glyph-name="unid1" unicode="&#xd1;" d="M792 1735Q717 1735 699 1601L526 1601Q543 1740 613.50 1821.50Q684 1903 789 1903Q833 1903 870.50 1888Q908 1873 932.50 1851.50Q957 1830 978 1808Q999 1786 1021.50 1771Q1044 1756 1066 1756Q1140 1756 1159 1885L1331 1885Q1315 1753 1243.50 1670.50Q1172 1588 1069 1588Q1025 1588 989 1603Q953 1618 928.50 1640Q904 1662 883 1683.50Q862 1705 839 1720Q816 1735 792 1735M373 0L127 0L381 1443L634 1443L957 484L974 484L1147 1443L1393 1443L1139 0L887 0L563 965L547 965L373 0Z"  horiz-adv-x="1266" vert-adv-y="2048"  />

      
      <glyph glyph-name="unid2" unicode="&#xd2;" d="M520 861L482 649Q468 559 468 483Q468 362 530.50 292.50Q593 223 701 223Q820 223 893.50 312Q967 401 1000 587L1039 802Q1053 894 1053 964Q1053 1081 989.50 1150.50Q926 1220 818 1220Q699 1220 626 1132.50Q553 1045 520 861M1323 763L1284 543Q1235 263 1082.50 117Q930-29 687-29Q466-29 324 110.50Q182 250 182 467Q182 607 197 682L236 902Q285 1178 438.50 1325Q592 1472 830 1472Q1055 1472 1196.50 1332Q1338 1192 1338 971Q1338 846 1323 763M826 1920L1029 1602L776 1602L537 1920L826 1920Z"  horiz-adv-x="1266" vert-adv-y="2048"  />

      
      <glyph glyph-name="unid3" unicode="&#xd3;" d="M762 1602L1075 1920L1373 1920L1025 1602L762 1602M1284 543Q1235 263 1082.50 117Q930-29 687-29Q466-29 324 110.50Q182 250 182 467Q182 607 197 682L236 902Q285 1178 438.50 1325Q592 1472 830 1472Q1055 1472 1196.50 1332Q1338 1192 1338 971Q1338 846 1323 763L1284 543M701 223Q820 223 893.50 312Q967 401 1000 587L1039 802Q1053 894 1053 964Q1053 1081 989.50 1150.50Q926 1220 818 1220Q699 1220 626 1132.50Q553 1045 520 861L482 649Q468 559 468 483Q468 362 530.50 292.50Q593 223 701 223Z"  horiz-adv-x="1266" vert-adv-y="2048"  />

      
      <glyph glyph-name="unid4" unicode="&#xd4;" d="M1114 1936L1336 1601L1098 1601L980 1795L963 1795L776 1601L520 1601L858 1936L1114 1936M1284 543Q1235 263 1082.50 117Q930-29 687-29Q466-29 324 110.50Q182 250 182 467Q182 607 197 682L236 902Q285 1178 438.50 1325Q592 1472 830 1472Q1055 1472 1196.50 1332Q1338 1192 1338 971Q1338 846 1323 763L1284 543M701 223Q820 223 893.50 312Q967 401 1000 587L1039 802Q1053 894 1053 964Q1053 1081 989.50 1150.50Q926 1220 818 1220Q699 1220 626 1132.50Q553 1045 520 861L482 649Q468 559 468 483Q468 362 530.50 292.50Q593 223 701 223Z"  horiz-adv-x="1266" vert-adv-y="2048"  />

      
      <glyph glyph-name="unid5" unicode="&#xd5;" d="M1284 543Q1235 263 1082.50 117Q930-29 687-29Q466-29 324 110.50Q182 250 182 467Q182 607 197 682L236 902Q285 1178 438.50 1325Q592 1472 830 1472Q1055 1472 1196.50 1332Q1338 1192 1338 971Q1338 846 1323 763L1284 543M701 223Q820 223 893.50 312Q967 401 1000 587L1039 802Q1053 894 1053 964Q1053 1081 989.50 1150.50Q926 1220 818 1220Q699 1220 626 1132.50Q553 1045 520 861L482 649Q468 559 468 483Q468 362 530.50 292.50Q593 223 701 223M791 1735Q716 1735 698 1601L525 1601Q542 1740 612.50 1821.50Q683 1903 788 1903Q832 1903 869.50 1888Q907 1873 931.50 1851.50Q956 1830 977 1808Q998 1786 1020.50 1771Q1043 1756 1065 1756Q1139 1756 1158 1885L1330 1885Q1314 1753 1242.50 1670.50Q1171 1588 1068 1588Q1024 1588 988 1603Q952 1618 927.50 1640Q903 1662 882 1683.50Q861 1705 838 1720Q815 1735 791 1735Z"  horiz-adv-x="1266" vert-adv-y="2048"  />

      
      <glyph glyph-name="unid6" unicode="&#xd6;" d="M813.50 1664Q813.50 1664 791.75 1641.50Q770 1619 710 1619Q650 1619 606.50 1664Q563 1709 563 1771Q563 1833 606.50 1878Q650 1923 710 1923Q770 1923 813.50 1878Q857 1833 857 1771Q857 1709 813.50 1664M1171 1619Q1112 1619 1068 1664Q1024 1709 1024 1771Q1024 1833 1068 1878Q1112 1923 1171 1923Q1231 1923 1274.50 1878Q1318 1833 1318 1771Q1318 1709 1274.50 1664Q1231 1619 1171 1619M1284 543Q1235 263 1082.50 117Q930-29 687-29Q466-29 324 110.50Q182 250 182 467Q182 607 197 682L236 902Q285 1178 438.50 1325Q592 1472 830 1472Q1055 1472 1196.50 1332Q1338 1192 1338 971Q1338 846 1323 763L1284 543M701 223Q820 223 893.50 312Q967 401 1000 587L1039 802Q1053 894 1053 964Q1053 1081 989.50 1150.50Q926 1220 818 1220Q699 1220 626 1132.50Q553 1045 520 861L482 649Q468 559 468 483Q468 362 530.50 292.50Q593 223 701 223Z"  horiz-adv-x="1266" vert-adv-y="2048"  />

      
      <glyph glyph-name="unid7" unicode="&#xd7;" d="M777 827L1135 1079L1276 857L918 603L1166 246L962 88L713 446L355 194L214 415L571 667L323 1027L528 1185L777 827Z"  horiz-adv-x="1266" vert-adv-y="2048"  />

      
      <glyph glyph-name="unid8" unicode="&#xd8;" d="M1000 587L1039 802Q1053 892 1053 960L499 340Q557 223 701 223Q820 223 893.50 312Q967 401 1000 587M520 861L482 649Q468 559 468 483L468 481L1024 1100Q964 1220 818 1220Q699 1220 626 1132.50Q553 1045 520 861M1484 1443L1281 1216Q1338 1107 1338 971Q1338 846 1323 763L1284 543Q1235 263 1082.50 117Q930-29 687-29Q571-29 473.50 12Q376 53 308 127L195 0L36 0L239 226Q182 334 182 467Q182 607 197 682L236 902Q285 1178 438.50 1325Q592 1472 830 1472Q1072 1472 1215 1313L1332 1443L1484 1443Z"  horiz-adv-x="1266" vert-adv-y="2048"  />

      
      <glyph glyph-name="unid9" unicode="&#xd9;" d="M193 534L353 1443L638 1443L479 545Q469 493 469 460Q469 351 535 289Q601 227 705 227Q809 227 879.50 297.50Q950 368 974 497L1142 1443L1426 1443L1248 452Q1207 224 1062 97.50Q917-29 698-29Q468-29 326 98Q184 225 184 437Q184 483 193 534M840 1920L1043 1602L790 1602L551 1920L840 1920Z"  horiz-adv-x="1266" vert-adv-y="2048"  />

      
      <glyph glyph-name="unida" unicode="&#xda;" d="M766 1602L1079 1920L1377 1920L1029 1602L766 1602M193 534L353 1443L638 1443L479 545Q469 493 469 460Q469 351 535 289Q601 227 705 227Q809 227 879.50 297.50Q950 368 974 497L1142 1443L1426 1443L1248 452Q1207 224 1062 97.50Q917-29 698-29Q468-29 326 98Q184 225 184 437Q184 483 193 534Z"  horiz-adv-x="1266" vert-adv-y="2048"  />

      
      <glyph glyph-name="unidb" unicode="&#xdb;" d="M1118 1936L1340 1601L1102 1601L984 1795L967 1795L780 1601L524 1601L862 1936L1118 1936M193 534L353 1443L638 1443L479 545Q469 493 469 460Q469 351 535 289Q601 227 705 227Q809 227 879.50 297.50Q950 368 974 497L1142 1443L1426 1443L1248 452Q1207 224 1062 97.50Q917-29 698-29Q468-29 326 98Q184 225 184 437Q184 483 193 534Z"  horiz-adv-x="1266" vert-adv-y="2048"  />

      
      <glyph glyph-name="unidc" unicode="&#xdc;" d="M817.50 1664Q817.50 1664 795.75 1641.50Q774 1619 714 1619Q654 1619 610.50 1664Q567 1709 567 1771Q567 1833 610.50 1878Q654 1923 714 1923Q774 1923 817.50 1878Q861 1833 861 1771Q861 1709 817.50 1664M1175 1619Q1116 1619 1072 1664Q1028 1709 1028 1771Q1028 1833 1072 1878Q1116 1923 1175 1923Q1235 1923 1278.50 1878Q1322 1833 1322 1771Q1322 1709 1278.50 1664Q1235 1619 1175 1619M193 534L353 1443L638 1443L479 545Q469 493 469 460Q469 351 535 289Q601 227 705 227Q809 227 879.50 297.50Q950 368 974 497L1142 1443L1426 1443L1248 452Q1207 224 1062 97.50Q917-29 698-29Q468-29 326 98Q184 225 184 437Q184 483 193 534Z"  horiz-adv-x="1266" vert-adv-y="2048"  />

      
      <glyph glyph-name="unidd" unicode="&#xdd;" d="M775 0L492 0L587 534L274 1443L571 1443L761 826L777 826L1181 1443L1497 1443L870 534L775 0M752 1602L1065 1920L1363 1920L1015 1602L752 1602Z"  horiz-adv-x="1266" vert-adv-y="2048"  />

      
      <glyph glyph-name="unide" unicode="&#xde;" d="M423 1443L724 1443L682 1208L873 1208Q1086 1208 1207 1093.50Q1328 979 1320 786Q1311 547 1164 414.50Q1017 282 758 282L522 282L470 0L169 0L423 1443M640 958L564 536L761 536Q885 536 955.50 597.50Q1026 659 1032 772Q1038 860 982 909Q926 958 821 958L640 958Z"  horiz-adv-x="1266" vert-adv-y="2048"  />

      
      <glyph glyph-name="unidf" unicode="&#xdf;" d="M396 0L105 0L299 1096Q331 1281 461.50 1381Q592 1481 802 1481Q1025 1481 1152.50 1383.50Q1280 1286 1280 1115Q1280 982 1202 883Q1124 784 1000 758L997 743Q1130 720 1204.50 633Q1279 546 1279 415Q1279 214 1150.50 97Q1022-20 802-20Q667-20 545 19L587 269Q659 234 761 234Q863 234 922.50 284.50Q982 335 982 421Q982 507 914.50 559Q847 611 736 611L678 611L721 864L758 864Q861 864 925 918.50Q989 973 989 1062Q989 1137 936 1181.50Q883 1226 793 1226Q705 1226 651 1179.50Q597 1133 581 1044L396 0Z"  horiz-adv-x="1266" vert-adv-y="2048"  />

      
      <glyph glyph-name="unie0" unicode="&#xe0;" d="M527-17Q382-17 289 69Q196 155 195 289Q194 464 319 559.50Q444 655 681 660L928 666L939 732Q944 760 944 773Q944 833 897 869.50Q850 906 772 906Q706 906 654 876Q602 846 582 795L314 795Q340 938 476.50 1031Q613 1124 797 1124Q986 1124 1099.50 1034Q1213 944 1213 794Q1213 744 1200 673L1082 0L822 0L848 145L826 145Q787 67 709 25Q631-17 527-17M633 202Q726 202 796 260Q866 318 882 410L898 490L698 486Q589 484 529.50 443Q470 402 469 329Q469 272 514 237Q559 202 633 202M1036 1296L779 1296L561 1649L857 1649L1036 1296Z"  horiz-adv-x="1266" vert-adv-y="2048"  />

      
      <glyph glyph-name="unie1" unicode="&#xe1;" d="M968 1296L702 1296L1005 1649L1310 1649L968 1296M898 490L698 486Q589 484 529.50 443Q470 402 469 329Q469 272 514 237Q559 202 633 202Q726 202 796 260Q866 318 882 410L898 490M848 145L826 145Q787 67 709 25Q631-17 527-17Q382-17 289 69Q196 155 195 289Q194 464 319 559.50Q444 655 681 660L928 666L939 732Q944 760 944 773Q944 833 897 869.50Q850 906 772 906Q706 906 654 876Q602 846 582 795L314 795Q340 938 476.50 1031Q613 1124 797 1124Q986 1124 1099.50 1034Q1213 944 1213 794Q1213 744 1200 673L1082 0L822 0L848 145Z"  horiz-adv-x="1266" vert-adv-y="2048"  />

      
      <glyph glyph-name="unie2" unicode="&#xe2;" d="M527-17Q382-17 289 69Q196 155 195 289Q194 464 319 559.50Q444 655 681 660L928 666L939 732Q944 760 944 773Q944 833 897 869.50Q850 906 772 906Q706 906 654 876Q602 846 582 795L314 795Q340 938 476.50 1031Q613 1124 797 1124Q986 1124 1099.50 1034Q1213 944 1213 794Q1213 744 1200 673L1082 0L822 0L848 145L826 145Q787 67 709 25Q631-17 527-17M633 202Q726 202 796 260Q866 318 882 410L898 490L698 486Q589 484 529.50 443Q470 402 469 329Q469 272 514 237Q559 202 633 202M784 1629L1071 1629L1276 1273L1022 1273L915 1481L897 1481L718 1273L453 1273L784 1629Z"  horiz-adv-x="1266" vert-adv-y="2048"  />

      
      <glyph glyph-name="unie3" unicode="&#xe3;" d="M527-17Q382-17 289 69Q196 155 195 289Q194 464 319 559.50Q444 655 681 660L928 666L939 732Q944 760 944 773Q944 833 897 869.50Q850 906 772 906Q706 906 654 876Q602 846 582 795L314 795Q340 938 476.50 1031Q613 1124 797 1124Q986 1124 1099.50 1034Q1213 944 1213 794Q1213 744 1200 673L1082 0L822 0L848 145L826 145Q787 67 709 25Q631-17 527-17M633 202Q726 202 796 260Q866 318 882 410L898 490L698 486Q589 484 529.50 443Q470 402 469 329Q469 272 514 237Q559 202 633 202M749 1413Q674 1413 658 1273L473 1273Q492 1421 565.50 1505.50Q639 1590 748 1590Q793 1590 831.50 1574.50Q870 1559 895.50 1537Q921 1515 943 1493Q965 1471 988 1455.50Q1011 1440 1034 1440Q1108 1440 1124 1576L1308 1576Q1291 1433 1216 1347.50Q1141 1262 1034 1262Q989 1262 951 1277.50Q913 1293 887 1315.50Q861 1338 839 1360Q817 1382 794 1397.50Q771 1413 749 1413Z"  horiz-adv-x="1266" vert-adv-y="2048"  />

      
      <glyph glyph-name="unie4" unicode="&#xe4;" d="M527-17Q382-17 289 69Q196 155 195 289Q194 464 319 559.50Q444 655 681 660L928 666L939 732Q944 760 944 773Q944 833 897 869.50Q850 906 772 906Q706 906 654 876Q602 846 582 795L314 795Q340 938 476.50 1031Q613 1124 797 1124Q986 1124 1099.50 1034Q1213 944 1213 794Q1213 744 1200 673L1082 0L822 0L848 145L826 145Q787 67 709 25Q631-17 527-17M633 202Q726 202 796 260Q866 318 882 410L898 490L698 486Q589 484 529.50 443Q470 402 469 329Q469 272 514 237Q559 202 633 202M767.50 1331Q767.50 1331 745.75 1308.50Q724 1286 664 1286Q604 1286 560.50 1331Q517 1376 517 1438Q517 1500 560.50 1545Q604 1590 664 1590Q724 1590 767.50 1545Q811 1500 811 1438Q811 1376 767.50 1331M1125 1286Q1066 1286 1022 1331Q978 1376 978 1438Q978 1500 1022 1545Q1066 1590 1125 1590Q1185 1590 1228.50 1545Q1272 1500 1272 1438Q1272 1376 1228.50 1331Q1185 1286 1125 1286Z"  horiz-adv-x="1266" vert-adv-y="2048"  />

      
      <glyph glyph-name="unie5" unicode="&#xe5;" d="M527-17Q382-17 289 69Q196 155 195 289Q194 464 319 559.50Q444 655 681 660L928 666L939 732Q944 760 944 773Q944 833 897 869.50Q850 906 772 906Q706 906 654 876Q602 846 582 795L314 795Q340 938 476.50 1031Q613 1124 797 1124Q986 1124 1099.50 1034Q1213 944 1213 794Q1213 744 1200 673L1082 0L822 0L848 145L826 145Q787 67 709 25Q631-17 527-17M633 202Q726 202 796 260Q866 318 882 410L898 490L698 486Q589 484 529.50 443Q470 402 469 329Q469 272 514 237Q559 202 633 202M829 1409.50Q829 1409.50 844 1394.75Q859 1380 902 1380Q945 1380 974.50 1409.50Q1004 1439 1004 1482Q1004 1525 974.50 1554.50Q945 1584 902 1584Q859 1584 829 1554.50Q799 1525 799 1482Q799 1439 829 1409.50M1070 1311Q1070 1311 1035 1275.50Q1000 1240 902 1240Q804 1240 733.50 1311Q663 1382 663 1482Q663 1582 733.50 1653Q804 1724 902 1724Q1000 1724 1070 1653Q1140 1582 1140 1482Q1140 1382 1070 1311Z"  horiz-adv-x="1266" vert-adv-y="2048"  />

      
      <glyph glyph-name="unie6" unicode="&#xe6;" d="M1290 358Q1256 185 1156.50 84.50Q1057-16 921-16Q826-16 761.50 37.50Q697 91 676 186L670 186Q631 93 551.50 38.50Q472-16 374-16Q259-16 182.50 67.50Q106 151 106 276Q106 439 207.50 542Q309 645 482 655L633 665L645 730Q652 772 652 801Q652 851 625 879.50Q598 908 552 908Q502 908 466.50 871.50Q431 835 419 770L208 770Q230 930 328.50 1030.50Q427 1131 563 1131Q742 1131 795 978L800 978Q839 1047 910 1089Q981 1131 1060 1131Q1195 1131 1273 1026Q1351 921 1343 750Q1343 676 1328 585L1324 558Q1319 530 1315 504.50Q1311 479 1310 475L816 475Q806 424 806 383Q806 304 840.50 257.50Q875 211 933 211Q988 211 1029 250Q1070 289 1086 358L1290 358M1128 667Q1136 728 1136 762Q1136 831 1106 869.50Q1076 908 1023 908Q967 908 923.50 855Q880 802 860 709Q859 705 855.50 687.50Q852 670 852 667L1128 667M427 213Q489 213 535 267.50Q581 322 594 410L606 478L479 471Q410 466 366 423.50Q322 381 322 318Q322 272 351 242.50Q380 213 427 213Z"  horiz-adv-x="1266" vert-adv-y="2048"  />

      
      <glyph glyph-name="unie7" unicode="&#xe7;" d="M1261 710L994 710L994 727Q994 803 938 852.50Q882 902 796 902Q583 902 534 637L519 549Q505 474 505 426Q505 319 558 261Q611 203 710 203Q881 203 935 371L1201 371Q1168 198 1039 91.50Q910-15 725-23L672-114Q750-123 795-164.50Q840-206 840-269Q840-376 765.50-433.50Q691-491 553-491Q483-491 405-469L428-334Q471-351 549-351Q602-351 632-335Q662-319 662-290Q662-234 543-234L486-234L503-117L564-11Q409 21 321 127Q233 233 233 390Q233 468 247 552Q266 668 273 696Q309 896 452.50 1013Q596 1130 807 1130Q1009 1130 1136 1028Q1263 926 1263 764Q1263 748 1261 710Z"  horiz-adv-x="1266" vert-adv-y="2048"  />

      
      <glyph glyph-name="unie8" unicode="&#xe8;" d="M1033 1296L776 1296L558 1649L854 1649L1033 1296M794 916Q698 916 633 862Q568 808 545 708Q536 674 535 661L986 661Q992 697 992 723Q999 809 944 862.50Q889 916 794 916M1182 310Q1156 160 1021 68Q886-24 692-24Q482-24 359.50 91.50Q237 207 237 404Q237 480 253 567L276 695Q312 892 455.50 1009Q599 1126 805 1126Q1005 1126 1131 1010Q1257 894 1249 718Q1249 660 1238 596L1221 486L507 486Q496 431 496 404Q491 306 548 247Q605 188 705 188Q783 188 837.50 220Q892 252 912 310L1182 310Z"  horiz-adv-x="1266" vert-adv-y="2048"  />

      
      <glyph glyph-name="unie9" unicode="&#xe9;" d="M912 310L1182 310Q1156 160 1021 68Q886-24 692-24Q482-24 359.50 91.50Q237 207 237 404Q237 480 253 567L276 695Q312 892 455.50 1009Q599 1126 805 1126Q1005 1126 1131 1010Q1257 894 1249 718Q1249 660 1238 596L1221 486L507 486Q496 431 496 404Q491 306 548 247Q605 188 705 188Q783 188 837.50 220Q892 252 912 310M535 661L986 661Q992 697 992 723Q999 809 944 862.50Q889 916 794 916Q698 916 633 862Q568 808 545 708Q536 674 535 661M965 1296L699 1296L1002 1649L1307 1649L965 1296Z"  horiz-adv-x="1266" vert-adv-y="2048"  />

      
      <glyph glyph-name="uniea" unicode="&#xea;" d="M781 1629L1068 1629L1273 1273L1019 1273L912 1481L894 1481L715 1273L450 1273L781 1629M794 916Q698 916 633 862Q568 808 545 708Q536 674 535 661L986 661Q992 697 992 723Q999 809 944 862.50Q889 916 794 916M1182 310Q1156 160 1021 68Q886-24 692-24Q482-24 359.50 91.50Q237 207 237 404Q237 480 253 567L276 695Q312 892 455.50 1009Q599 1126 805 1126Q1005 1126 1131 1010Q1257 894 1249 718Q1249 660 1238 596L1221 486L507 486Q496 431 496 404Q491 306 548 247Q605 188 705 188Q783 188 837.50 220Q892 252 912 310L1182 310Z"  horiz-adv-x="1266" vert-adv-y="2048"  />

      
      <glyph glyph-name="unieb" unicode="&#xeb;" d="M794 916Q698 916 633 862Q568 808 545 708Q536 674 535 661L986 661Q992 697 992 723Q999 809 944 862.50Q889 916 794 916M1182 310Q1156 160 1021 68Q886-24 692-24Q482-24 359.50 91.50Q237 207 237 404Q237 480 253 567L276 695Q312 892 455.50 1009Q599 1126 805 1126Q1005 1126 1131 1010Q1257 894 1249 718Q1249 660 1238 596L1221 486L507 486Q496 431 496 404Q491 306 548 247Q605 188 705 188Q783 188 837.50 220Q892 252 912 310L1182 310M771.50 1339Q771.50 1339 749.75 1316.50Q728 1294 668 1294Q608 1294 564.50 1339Q521 1384 521 1446Q521 1508 564.50 1553Q608 1598 668 1598Q728 1598 771.50 1553Q815 1508 815 1446Q815 1384 771.50 1339M1129 1294Q1070 1294 1026 1339Q982 1384 982 1446Q982 1508 1026 1553Q1070 1598 1129 1598Q1189 1598 1232.50 1553Q1276 1508 1276 1446Q1276 1384 1232.50 1339Q1189 1294 1129 1294Z"  horiz-adv-x="1266" vert-adv-y="2048"  />

      
      <glyph glyph-name="uniec" unicode="&#xec;" d="M1054 1296L797 1296L579 1649L875 1649L1054 1296M1120 0L167 0L204 218L558 218L679 884L343 884L379 1103L981 1103L824 218L1157 218L1120 0Z"  horiz-adv-x="1266" vert-adv-y="2048"  />

      
      <glyph glyph-name="unied" unicode="&#xed;" d="M1120 0L167 0L204 218L558 218L679 884L343 884L379 1103L981 1103L824 218L1157 218L1120 0M985 1296L719 1296L1022 1649L1327 1649L985 1296Z"  horiz-adv-x="1266" vert-adv-y="2048"  />

      
      <glyph glyph-name="uniee" unicode="&#xee;" d="M801 1629L1088 1629L1293 1273L1039 1273L932 1481L914 1481L735 1273L470 1273L801 1629M1120 0L167 0L204 218L558 218L679 884L343 884L379 1103L981 1103L824 218L1157 218L1120 0Z"  horiz-adv-x="1266" vert-adv-y="2048"  />

      
      <glyph glyph-name="unief" unicode="&#xef;" d="M1120 0L167 0L204 218L558 218L679 884L343 884L379 1103L981 1103L824 218L1157 218L1120 0M784.50 1335Q784.50 1335 762.75 1312.50Q741 1290 681 1290Q621 1290 577.50 1335Q534 1380 534 1442Q534 1504 577.50 1549Q621 1594 681 1594Q741 1594 784.50 1549Q828 1504 828 1442Q828 1380 784.50 1335M1142 1290Q1083 1290 1039 1335Q995 1380 995 1442Q995 1504 1039 1549Q1083 1594 1142 1594Q1202 1594 1245.50 1549Q1289 1504 1289 1442Q1289 1380 1245.50 1335Q1202 1290 1142 1290Z"  horiz-adv-x="1266" vert-adv-y="2048"  />

      
      <glyph glyph-name="unif0" unicode="&#xf0;" d="M922 460L932 529Q938 569 938 626Q938 718 881 776Q824 834 733 834Q638 834 572.50 766.50Q507 699 490 584L483 526Q476 481 476 421Q476 322 532.50 262Q589 202 682 202Q774 202 839 271.50Q904 341 922 460M1373 1557L1345 1389L1101 1304Q1164 1180 1199 1036Q1234 892 1234 750Q1234 584 1199 429Q1155 210 1018 95Q881-20 666-20Q453-20 324.50 102.50Q196 225 196 430Q196 496 205 554L219 648Q247 819 367.50 927.50Q488 1036 652 1036Q849 1036 939 896L954 895Q936 1050 849 1216L527 1104L555 1271L770 1346Q681 1471 584 1542L928 1542Q980 1493 1022 1434L1373 1557Z"  horiz-adv-x="1266" vert-adv-y="2048"  />

      
      <glyph glyph-name="unif1" unicode="&#xf1;" d="M749 1413Q674 1413 658 1273L473 1273Q492 1421 565.50 1505.50Q639 1590 748 1590Q793 1590 831.50 1574.50Q870 1559 895.50 1537Q921 1515 943 1493Q965 1471 988 1455.50Q1011 1440 1034 1440Q1108 1440 1124 1576L1308 1576Q1291 1433 1216 1347.50Q1141 1262 1034 1262Q989 1262 951 1277.50Q913 1293 887 1315.50Q861 1338 839 1360Q817 1382 794 1397.50Q771 1413 749 1413M142 0L335 1103L601 1103L569 920L584 920Q627 1014 713.50 1070Q800 1126 913 1126Q1070 1126 1161 1032.50Q1252 939 1252 785Q1252 726 1239 654L1124 0L850 0L960 621Q968 671 968 710Q968 788 918 837.50Q868 887 783 887Q687 887 618.50 824Q550 761 529 648L415 0L142 0Z"  horiz-adv-x="1266" vert-adv-y="2048"  />

      
      <glyph glyph-name="unif2" unicode="&#xf2;" d="M1022 1296L765 1296L547 1649L843 1649L1022 1296M689-23Q478-23 345 102Q212 227 212 416Q212 479 221 528L249 688Q285 892 424 1009Q563 1126 766 1126Q981 1126 1115.50 1001Q1250 876 1250 685Q1250 633 1240 576L1212 416Q1175 209 1036.50 93Q898-23 689-23M763 902Q663 902 598.50 838.50Q534 775 512 654L486 504Q478 465 478 422Q478 323 540 261.50Q602 200 699 200Q800 200 864 264Q928 328 950 452L977 603Q983 642 983 681Q983 779 922 840.50Q861 902 763 902Z"  horiz-adv-x="1266" vert-adv-y="2048"  />

      
      <glyph glyph-name="unif3" unicode="&#xf3;" d="M950 452L977 603Q983 642 983 681Q983 779 922 840.50Q861 902 763 902Q663 902 598.50 838.50Q534 775 512 654L486 504Q478 465 478 422Q478 323 540 261.50Q602 200 699 200Q800 200 864 264Q928 328 950 452M1240 576L1212 416Q1175 209 1036.50 93Q898-23 689-23Q478-23 345 102Q212 227 212 416Q212 479 221 528L249 688Q285 892 424 1009Q563 1126 766 1126Q981 1126 1115.50 1001Q1250 876 1250 685Q1250 633 1240 576M954 1296L688 1296L991 1649L1296 1649L954 1296Z"  horiz-adv-x="1266" vert-adv-y="2048"  />

      
      <glyph glyph-name="unif4" unicode="&#xf4;" d="M769 1629L1056 1629L1261 1273L1007 1273L900 1481L882 1481L703 1273L438 1273L769 1629M689-23Q478-23 345 102Q212 227 212 416Q212 479 221 528L249 688Q285 892 424 1009Q563 1126 766 1126Q981 1126 1115.50 1001Q1250 876 1250 685Q1250 633 1240 576L1212 416Q1175 209 1036.50 93Q898-23 689-23M763 902Q663 902 598.50 838.50Q534 775 512 654L486 504Q478 465 478 422Q478 323 540 261.50Q602 200 699 200Q800 200 864 264Q928 328 950 452L977 603Q983 642 983 681Q983 779 922 840.50Q861 902 763 902Z"  horiz-adv-x="1266" vert-adv-y="2048"  />

      
      <glyph glyph-name="unif5" unicode="&#xf5;" d="M730 1413Q655 1413 639 1273L454 1273Q473 1421 546.50 1505.50Q620 1590 729 1590Q774 1590 812.50 1574.50Q851 1559 876.50 1537Q902 1515 924 1493Q946 1471 969 1455.50Q992 1440 1015 1440Q1089 1440 1105 1576L1289 1576Q1272 1433 1197 1347.50Q1122 1262 1015 1262Q970 1262 932 1277.50Q894 1293 868 1315.50Q842 1338 820 1360Q798 1382 775 1397.50Q752 1413 730 1413M689-23Q478-23 345 102Q212 227 212 416Q212 479 221 528L249 688Q285 892 424 1009Q563 1126 766 1126Q981 1126 1115.50 1001Q1250 876 1250 685Q1250 633 1240 576L1212 416Q1175 209 1036.50 93Q898-23 689-23M763 902Q663 902 598.50 838.50Q534 775 512 654L486 504Q478 465 478 422Q478 323 540 261.50Q602 200 699 200Q800 200 864 264Q928 328 950 452L977 603Q983 642 983 681Q983 779 922 840.50Q861 902 763 902Z"  horiz-adv-x="1266" vert-adv-y="2048"  />

      
      <glyph glyph-name="unif6" unicode="&#xf6;" d="M752.50 1331Q752.50 1331 730.75 1308.50Q709 1286 649 1286Q589 1286 545.50 1331Q502 1376 502 1438Q502 1500 545.50 1545Q589 1590 649 1590Q709 1590 752.50 1545Q796 1500 796 1438Q796 1376 752.50 1331M1110 1286Q1051 1286 1007 1331Q963 1376 963 1438Q963 1500 1007 1545Q1051 1590 1110 1590Q1170 1590 1213.50 1545Q1257 1500 1257 1438Q1257 1376 1213.50 1331Q1170 1286 1110 1286M689-23Q478-23 345 102Q212 227 212 416Q212 479 221 528L249 688Q285 892 424 1009Q563 1126 766 1126Q981 1126 1115.50 1001Q1250 876 1250 685Q1250 633 1240 576L1212 416Q1175 209 1036.50 93Q898-23 689-23M763 902Q663 902 598.50 838.50Q534 775 512 654L486 504Q478 465 478 422Q478 323 540 261.50Q602 200 699 200Q800 200 864 264Q928 328 950 452L977 603Q983 642 983 681Q983 779 922 840.50Q861 902 763 902Z"  horiz-adv-x="1266" vert-adv-y="2048"  />

      
      <glyph glyph-name="unif7" unicode="&#xf7;" d="M1250 526L194 526L234 758L1290 758L1250 526M789 872Q716 872 670.50 918Q625 964 625 1038Q625 1111 670.50 1156.50Q716 1202 789 1202Q863 1202 909 1156.50Q955 1111 955 1038Q955 964 909 918Q863 872 789 872M694 81Q621 81 575.50 127Q530 173 530 246Q530 319 575.50 365Q621 411 694 411Q768 411 814 365.50Q860 320 860 246Q860 172 814 126.50Q768 81 694 81Z"  horiz-adv-x="1266" vert-adv-y="2048"  />

      
      <glyph glyph-name="unif8" unicode="&#xf8;" d="M937 452L964 603Q970 642 970 681Q970 737 949 782L572 228Q623 200 686 200Q788 200 851.50 264Q915 328 937 452M499 654L473 504Q465 465 465 422Q465 358 493 308L872 869Q819 902 750 902Q650 902 585.50 838.50Q521 775 499 654M1191 1138L1100 1003Q1237 879 1237 685Q1237 633 1227 576L1199 416Q1162 209 1023.50 93Q885-23 676-23Q545-23 438 29L394-35L261-35L345 90Q275 150 237 234Q199 318 199 416Q199 479 208 528L236 688Q272 892 411 1009Q550 1126 753 1126Q894 1126 1007 1068L1054 1138L1191 1138Z"  horiz-adv-x="1266" vert-adv-y="2048"  />

      
      <glyph glyph-name="unif9" unicode="&#xf9;" d="M1023 1296L766 1296L548 1649L844 1649L1023 1296M1318 1103L1125 0L859 0L891 183L876 183Q833 89 746.50 33Q660-23 547-23Q390-23 299 70.50Q208 164 208 318Q208 377 221 449L336 1103L610 1103L500 482Q492 432 492 393Q492 315 542 265.50Q592 216 677 216Q773 216 841.50 279Q910 342 931 455L1045 1103L1318 1103Z"  horiz-adv-x="1266" vert-adv-y="2048"  />

      
      <glyph glyph-name="unifa" unicode="&#xfa;" d="M1318 1103L1125 0L859 0L891 183L876 183Q833 89 746.50 33Q660-23 547-23Q390-23 299 70.50Q208 164 208 318Q208 377 221 449L336 1103L610 1103L500 482Q492 432 492 393Q492 315 542 265.50Q592 216 677 216Q773 216 841.50 279Q910 342 931 455L1045 1103L1318 1103M955 1296L689 1296L992 1649L1297 1649L955 1296Z"  horiz-adv-x="1266" vert-adv-y="2048"  />

      
      <glyph glyph-name="unifb" unicode="&#xfb;" d="M771 1629L1058 1629L1263 1273L1009 1273L902 1481L884 1481L705 1273L440 1273L771 1629M1318 1103L1125 0L859 0L891 183L876 183Q833 89 746.50 33Q660-23 547-23Q390-23 299 70.50Q208 164 208 318Q208 377 221 449L336 1103L610 1103L500 482Q492 432 492 393Q492 315 542 265.50Q592 216 677 216Q773 216 841.50 279Q910 342 931 455L1045 1103L1318 1103Z"  horiz-adv-x="1266" vert-adv-y="2048"  />

      
      <glyph glyph-name="unifc" unicode="&#xfc;" d="M1318 1103L1125 0L859 0L891 183L876 183Q833 89 746.50 33Q660-23 547-23Q390-23 299 70.50Q208 164 208 318Q208 377 221 449L336 1103L610 1103L500 482Q492 432 492 393Q492 315 542 265.50Q592 216 677 216Q773 216 841.50 279Q910 342 931 455L1045 1103L1318 1103M754.50 1331Q754.50 1331 732.75 1308.50Q711 1286 651 1286Q591 1286 547.50 1331Q504 1376 504 1438Q504 1500 547.50 1545Q591 1590 651 1590Q711 1590 754.50 1545Q798 1500 798 1438Q798 1376 754.50 1331M1112 1286Q1053 1286 1009 1331Q965 1376 965 1438Q965 1500 1009 1545Q1053 1590 1112 1590Q1172 1590 1215.50 1545Q1259 1500 1259 1438Q1259 1376 1215.50 1331Q1172 1286 1112 1286Z"  horiz-adv-x="1266" vert-adv-y="2048"  />

      
      <glyph glyph-name="unifd" unicode="&#xfd;" d="M950 1296L684 1296L987 1649L1292 1649L950 1296M1375 1103L798-14Q688-229 566-313.50Q444-398 244-398Q150-398 136-396L175-172Q187-175 237-175Q320-175 370.50-146Q421-117 454-50L473-8L278 1103L573 1103L668 252L684 252L1079 1103L1375 1103Z"  horiz-adv-x="1266" vert-adv-y="2048"  />

      
      <glyph glyph-name="unife" unicode="&#xfe;" d="M794-22Q665-22 573.50 42Q482 106 465 207L449 207L351-345L66-345L386 1474L672 1474L575 922L592 922Q631 1012 719 1067Q807 1122 914 1122Q1077 1122 1176.50 1019Q1276 916 1276 747Q1276 689 1265 618L1233 441Q1195 222 1079 100Q963-22 794-22M708 221Q799 221 863 281.50Q927 342 946 447L975 609Q981 653 981 687Q981 778 924.50 833.50Q868 889 776 889Q683 889 617 829.50Q551 770 531 667Q529 657 516 580.50Q503 504 503 502Q497 457 497 422Q497 334 556.50 277.50Q616 221 708 221Z"  horiz-adv-x="1266" vert-adv-y="2048"  />

      
      <glyph glyph-name="uniff" unicode="&#xff;" d="M244-398Q150-398 136-396L175-172Q187-175 237-175Q320-175 370.50-146Q421-117 454-50L473-8L278 1103L573 1103L668 252L684 252L1079 1103L1375 1103L798-14Q688-229 566-313.50Q444-398 244-398M749.50 1339Q749.50 1339 727.75 1316.50Q706 1294 646 1294Q586 1294 542.50 1339Q499 1384 499 1446Q499 1508 542.50 1553Q586 1598 646 1598Q706 1598 749.50 1553Q793 1508 793 1446Q793 1384 749.50 1339M1107 1294Q1048 1294 1004 1339Q960 1384 960 1446Q960 1508 1004 1553Q1048 1598 1107 1598Q1167 1598 1210.50 1553Q1254 1508 1254 1446Q1254 1384 1210.50 1339Q1167 1294 1107 1294Z"  horiz-adv-x="1266" vert-adv-y="2048"  />

      
      <glyph glyph-name="uni0100" unicode="&#x0100;" d="M578 575L893 575L848 1160L835 1160L578 575M719 1443L1055 1443L1232 0L938 0L911 353L481 353L326 0L32 0L719 1443M594 1840L1313 1840L1281 1655L562 1655L594 1840Z"  horiz-adv-x="1266" vert-adv-y="2048"  />

      
      <glyph glyph-name="uni0101" unicode="&#x0101;" d="M527-17Q382-17 289 69Q196 155 195 289Q194 464 319 559.50Q444 655 681 660L928 666L939 732Q944 760 944 773Q944 833 897 869.50Q850 906 772 906Q706 906 654 876Q602 846 582 795L314 795Q340 938 476.50 1031Q613 1124 797 1124Q986 1124 1099.50 1034Q1213 944 1213 794Q1213 744 1200 673L1082 0L822 0L848 145L826 145Q787 67 709 25Q631-17 527-17M633 202Q726 202 796 260Q866 318 882 410L898 490L698 486Q589 484 529.50 443Q470 402 469 329Q469 272 514 237Q559 202 633 202M1239 1355L520 1355L552 1540L1271 1540L1239 1355Z"  horiz-adv-x="1266" vert-adv-y="2048"  />

      
      <glyph glyph-name="uni0102" unicode="&#x0102;" d="M578 575L893 575L848 1160L835 1160L578 575M719 1443L1055 1443L1232 0L938 0L911 353L481 353L326 0L32 0L719 1443M1147 1927L1348 1927Q1321 1776 1203 1683.50Q1085 1591 919 1591Q753 1591 653 1687.50Q553 1784 573 1927L769 1927Q764 1850 809 1802.50Q854 1755 932 1755Q1013 1755 1072 1802Q1131 1849 1147 1927Z"  horiz-adv-x="1266" vert-adv-y="2048"  />

      
      <glyph glyph-name="uni0103" unicode="&#x0103;" d="M527-17Q382-17 289 69Q196 155 195 289Q194 464 319 559.50Q444 655 681 660L928 666L939 732Q944 760 944 773Q944 833 897 869.50Q850 906 772 906Q706 906 654 876Q602 846 582 795L314 795Q340 938 476.50 1031Q613 1124 797 1124Q986 1124 1099.50 1034Q1213 944 1213 794Q1213 744 1200 673L1082 0L822 0L848 145L826 145Q787 67 709 25Q631-17 527-17M633 202Q726 202 796 260Q866 318 882 410L898 490L698 486Q589 484 529.50 443Q470 402 469 329Q469 272 514 237Q559 202 633 202M884 1230Q711 1230 607 1334Q503 1438 530 1584L727 1584Q719 1503 766 1455Q813 1407 899 1407Q985 1407 1043 1455.50Q1101 1504 1109 1584L1310 1584Q1295 1427 1176.50 1328.50Q1058 1230 884 1230Z"  horiz-adv-x="1266" vert-adv-y="2048"  />

      
      <glyph glyph-name="uni0104" unicode="&#x0104;" d="M835 1160L574 575L897 575L848 1160L835 1160M935 17L908 353L485 353L326 0L32 0L719 1443L1056 1443L1232 0Q1103-22 1035-71Q967-120 967-188Q967-234 1002.50-262Q1038-290 1096-290Q1140-290 1171-283L1143-440Q1094-459 1012-459Q892-459 817.50-398.50Q743-338 743-241Q743-90 935 17Z"  horiz-adv-x="1266" vert-adv-y="2048"  />

      
      <glyph glyph-name="uni0105" unicode="&#x0105;" d="M633 202Q726 202 797 260.50Q868 319 884 410L900 490L698 486Q589 484 529.50 443Q470 402 469 329Q469 272 514 237Q559 202 633 202M831 13L853 145L828 145Q789 70 707.50 26.50Q626-17 527-17Q382-17 289 69Q196 155 195 289Q194 464 319 559.50Q444 655 681 660L930 666L941 732Q945 751 945 774Q945 834 898.50 870Q852 906 774 906Q707 906 654.50 876Q602 846 582 795L314 795Q340 938 477 1031Q614 1124 799 1124Q987 1124 1101 1034Q1215 944 1215 794Q1215 739 1201 673L1083 0Q966-32 911-79Q856-126 856-191Q856-237 888.50-263.50Q921-290 976-290Q1004-290 1033-283L1005-440Q958-459 886-459Q775-459 703-398.50Q631-338 631-245Q631-161 675.50-103.50Q720-46 831 13Z"  horiz-adv-x="1266" vert-adv-y="2048"  />

      
      <glyph glyph-name="uni0106" unicode="&#x0106;" d="M768 1602L1081 1920L1379 1920L1031 1602L768 1602M1290 450Q1255 225 1103 97.50Q951-30 719-30Q482-30 337.50 112Q193 254 193 487Q193 569 206 637L254 916Q301 1187 457.50 1329.50Q614 1472 864 1472Q1090 1472 1232 1341.50Q1374 1211 1374 1003Q1374 978 1368 927L1081 927Q1084 960 1084 995Q1084 1094 1021 1154.50Q958 1215 854 1215Q735 1215 655 1132Q575 1049 547 895L498 609Q485 544 485 484Q485 366 551 297.50Q617 229 730 229Q955 229 1004 479L1006 495L1295 495Q1295 468 1290 450Z"  horiz-adv-x="1266" vert-adv-y="2048"  />

      
      <glyph glyph-name="uni0107" unicode="&#x0107;" d="M961 1296L695 1296L998 1649L1303 1649L961 1296M1261 710L994 710L994 727Q994 803 938 852.50Q882 902 796 902Q583 902 534 637L519 549Q505 474 505 426Q505 319 558 261Q611 203 710 203Q881 203 935 371L1201 371Q1167 191 1029 83.50Q891-24 694-24Q483-24 358 88.50Q233 201 233 390Q233 468 247 552Q266 668 273 696Q309 896 452.50 1013Q596 1130 807 1130Q1009 1130 1136 1028Q1263 926 1263 764Q1263 748 1261 710Z"  horiz-adv-x="1266" vert-adv-y="2048"  />

      
      <glyph glyph-name="uni0108" unicode="&#x0108;" d="M1290 450Q1255 225 1103 97.50Q951-30 719-30Q482-30 337.50 112Q193 254 193 487Q193 569 206 637L254 916Q301 1187 457.50 1329.50Q614 1472 864 1472Q1090 1472 1232 1341.50Q1374 1211 1374 1003Q1374 978 1368 927L1081 927Q1084 960 1084 995Q1084 1094 1021 1154.50Q958 1215 854 1215Q735 1215 655 1132Q575 1049 547 895L498 609Q485 544 485 484Q485 366 551 297.50Q617 229 730 229Q955 229 1004 479L1006 495L1295 495Q1295 468 1290 450M1120 1936L1342 1601L1104 1601L986 1795L969 1795L782 1601L526 1601L864 1936L1120 1936Z"  horiz-adv-x="1266" vert-adv-y="2048"  />

      
      <glyph glyph-name="uni0109" unicode="&#x0109;" d="M777 1629L1064 1629L1269 1273L1015 1273L908 1481L890 1481L711 1273L446 1273L777 1629M1261 710L994 710L994 727Q994 803 938 852.50Q882 902 796 902Q583 902 534 637L519 549Q505 474 505 426Q505 319 558 261Q611 203 710 203Q881 203 935 371L1201 371Q1167 191 1029 83.50Q891-24 694-24Q483-24 358 88.50Q233 201 233 390Q233 468 247 552Q266 668 273 696Q309 896 452.50 1013Q596 1130 807 1130Q1009 1130 1136 1028Q1263 926 1263 764Q1263 748 1261 710Z"  horiz-adv-x="1266" vert-adv-y="2048"  />

      
      <glyph glyph-name="uni010A" unicode="&#x010A;" d="M1058 1645Q1058 1645 1034.50 1621Q1011 1597 946 1597Q881 1597 834.50 1645Q788 1693 788 1760Q788 1827 834.50 1875Q881 1923 946 1923Q1011 1923 1058 1875Q1105 1827 1105 1760Q1105 1693 1058 1645M1290 450Q1255 225 1103 97.50Q951-30 719-30Q482-30 337.50 112Q193 254 193 487Q193 569 206 637L254 916Q301 1187 457.50 1329.50Q614 1472 864 1472Q1090 1472 1232 1341.50Q1374 1211 1374 1003Q1374 978 1368 927L1081 927Q1084 960 1084 995Q1084 1094 1021 1154.50Q958 1215 854 1215Q735 1215 655 1132Q575 1049 547 895L498 609Q485 544 485 484Q485 366 551 297.50Q617 229 730 229Q955 229 1004 479L1006 495L1295 495Q1295 468 1290 450Z"  horiz-adv-x="1266" vert-adv-y="2048"  />

      
      <glyph glyph-name="uni010B" unicode="&#x010B;" d="M1261 710L994 710L994 727Q994 803 938 852.50Q882 902 796 902Q583 902 534 637L519 549Q505 474 505 426Q505 319 558 261Q611 203 710 203Q881 203 935 371L1201 371Q1167 191 1029 83.50Q891-24 694-24Q483-24 358 88.50Q233 201 233 390Q233 468 247 552Q266 668 273 696Q309 896 452.50 1013Q596 1130 807 1130Q1009 1130 1136 1028Q1263 926 1263 764Q1263 748 1261 710M999 1330Q999 1330 975.50 1306Q952 1282 887 1282Q822 1282 775.50 1330Q729 1378 729 1445Q729 1512 775.50 1560Q822 1608 887 1608Q952 1608 999 1560Q1046 1512 1046 1445Q1046 1378 999 1330Z"  horiz-adv-x="1266" vert-adv-y="2048"  />

      
      <glyph glyph-name="uni010C" unicode="&#x010C;" d="M1290 450Q1255 225 1103 97.50Q951-30 719-30Q482-30 337.50 112Q193 254 193 487Q193 569 206 637L254 916Q301 1187 457.50 1329.50Q614 1472 864 1472Q1090 1472 1232 1341.50Q1374 1211 1374 1003Q1374 978 1368 927L1081 927Q1084 960 1084 995Q1084 1094 1021 1154.50Q958 1215 854 1215Q735 1215 655 1132Q575 1049 547 895L498 609Q485 544 485 484Q485 366 551 297.50Q617 229 730 229Q955 229 1004 479L1006 495L1295 495Q1295 468 1290 450M790 1594L568 1929L806 1929L924 1735L941 1735L1128 1929L1384 1929L1046 1594L790 1594Z"  horiz-adv-x="1266" vert-adv-y="2048"  />

      
      <glyph glyph-name="uni010D" unicode="&#x010D;" d="M1002 1296L715 1296L510 1652L764 1652L871 1444L889 1444L1068 1652L1333 1652L1002 1296M1261 710L994 710L994 727Q994 803 938 852.50Q882 902 796 902Q583 902 534 637L519 549Q505 474 505 426Q505 319 558 261Q611 203 710 203Q881 203 935 371L1201 371Q1167 191 1029 83.50Q891-24 694-24Q483-24 358 88.50Q233 201 233 390Q233 468 247 552Q266 668 273 696Q309 896 452.50 1013Q596 1130 807 1130Q1009 1130 1136 1028Q1263 926 1263 764Q1263 748 1261 710Z"  horiz-adv-x="1266" vert-adv-y="2048"  />

      
      <glyph glyph-name="uni010E" unicode="&#x010E;" d="M716 1594L494 1929L732 1929L850 1735L867 1735L1054 1929L1310 1929L972 1594L716 1594M783 1443Q1045 1443 1190 1297.50Q1335 1152 1335 890Q1335 822 1329 766Q1327 736 1311 651Q1198 0 634 0L121 0L375 1443L783 1443M734 1201L619 1201L447 245L594 245Q775 245 877 348.50Q979 452 1017 668Q1017 669 1024 709.50Q1031 750 1032 763Q1037 818 1037 872Q1037 1031 958.50 1116Q880 1201 734 1201Z"  horiz-adv-x="1266" vert-adv-y="2048"  />

      
      <glyph glyph-name="uni010F" unicode="&#x010F;" d="M1324 1523L1534 1523L1414 1032L1238 1032L1324 1523M573 1121Q682 1121 748 1066.50Q814 1012 830 920L845 920L952 1523L1199 1523L931 0L687 0L718 175L700 175Q625-17 440-17Q298-17 212.50 72Q127 161 127 306Q127 379 139 444L181 700Q214 896 318 1008.50Q422 1121 573 1121M622 890Q450 890 412 685L376 476Q371 450 371 403Q371 322 417 272Q463 222 543 222Q630 222 687.50 274.50Q745 327 763 429L799 640Q805 676 805 715Q805 788 754.50 839Q704 890 622 890Z"  horiz-adv-x="1266" vert-adv-y="2048"  />

      
      <glyph glyph-name="uni0110" unicode="&#x0110;" d="M467 231L608 231Q960 231 1040 655Q1056 760 1056 768Q1063 836 1063 902Q1063 1055 984 1134Q905 1213 753 1213L644 1213L576 838L844 838L806 623L538 623L467 231M424 1443L776 1443Q1035 1443 1183.50 1299.50Q1332 1156 1332 905Q1332 826 1326 763Q1324 747 1305 631Q1249 324 1070.50 162Q892 0 610 0L170 0L280 623L140 623L177 838L318 838L424 1443Z"  horiz-adv-x="1266" vert-adv-y="2048"  />

      
      <glyph glyph-name="uni0111" unicode="&#x0111;" d="M918 449L948 618Q954 652 954 689Q954 776 894 833Q834 890 742 890Q646 890 583.50 831Q521 772 501 664L472 501Q466 463 466 417Q466 331 521.50 276.50Q577 222 666 222Q764 222 831 283Q898 344 918 449M1504 1400L1479 1256L1338 1256L1117 0L836 0L871 199L853 199Q817 100 732 41.50Q647-17 538-17Q374-17 276.50 83Q179 183 179 350Q179 411 190 484L218 664Q251 877 369.50 999Q488 1121 661 1121Q784 1121 871.50 1059Q959 997 975 896L991 896L1055 1256L900 1256L925 1400L1080 1400L1102 1523L1385 1523L1363 1400L1504 1400Z"  horiz-adv-x="1266" vert-adv-y="2048"  />

      
      <glyph glyph-name="uni0112" unicode="&#x0112;" d="M1149 245L1108 0L198 0L452 1443L1362 1443L1321 1198L696 1198L631 843L1219 843L1181 616L593 616L524 245L1149 245M1289 1655L570 1655L602 1840L1321 1840L1289 1655Z"  horiz-adv-x="1266" vert-adv-y="2048"  />

      
      <glyph glyph-name="uni0113" unicode="&#x0113;" d="M794 916Q698 916 633 862Q568 808 545 708Q536 674 535 661L986 661Q992 697 992 723Q999 809 944 862.50Q889 916 794 916M1182 310Q1156 160 1021 68Q886-24 692-24Q482-24 359.50 91.50Q237 207 237 404Q237 480 253 567L276 695Q312 892 455.50 1009Q599 1126 805 1126Q1005 1126 1131 1010Q1257 894 1249 718Q1249 660 1238 596L1221 486L507 486Q496 431 496 404Q491 306 548 247Q605 188 705 188Q783 188 837.50 220Q892 252 912 310L1182 310M1236 1355L517 1355L549 1540L1268 1540L1236 1355Z"  horiz-adv-x="1266" vert-adv-y="2048"  />

      
      <glyph glyph-name="uni0114" unicode="&#x0114;" d="M1149 245L1108 0L198 0L452 1443L1362 1443L1321 1198L696 1198L631 843L1219 843L1181 616L593 616L524 245L1149 245M1211 1683.50Q1211 1683.50 1152 1637.25Q1093 1591 927 1591Q761 1591 661 1687.50Q561 1784 581 1927L777 1927Q772 1850 817 1802.50Q862 1755 940 1755Q1021 1755 1080 1802Q1139 1849 1155 1927L1356 1927Q1329 1776 1211 1683.50Z"  horiz-adv-x="1266" vert-adv-y="2048"  />

      
      <glyph glyph-name="uni0115" unicode="&#x0115;" d="M794 916Q698 916 633 862Q568 808 545 708Q536 674 535 661L986 661Q992 697 992 723Q999 809 944 862.50Q889 916 794 916M1182 310Q1156 160 1021 68Q886-24 692-24Q482-24 359.50 91.50Q237 207 237 404Q237 480 253 567L276 695Q312 892 455.50 1009Q599 1126 805 1126Q1005 1126 1131 1010Q1257 894 1249 718Q1249 660 1238 596L1221 486L507 486Q496 431 496 404Q491 306 548 247Q605 188 705 188Q783 188 837.50 220Q892 252 912 310L1182 310M881 1230Q708 1230 604 1334Q500 1438 527 1584L724 1584Q716 1503 763 1455Q810 1407 896 1407Q982 1407 1040 1455.50Q1098 1504 1106 1584L1307 1584Q1292 1427 1173.50 1328.50Q1055 1230 881 1230Z"  horiz-adv-x="1266" vert-adv-y="2048"  />

      
      <glyph glyph-name="uni0116" unicode="&#x0116;" d="M1060 1645Q1060 1645 1036.50 1621Q1013 1597 948 1597Q883 1597 836.50 1645Q790 1693 790 1760Q790 1827 836.50 1875Q883 1923 948 1923Q1013 1923 1060 1875Q1107 1827 1107 1760Q1107 1693 1060 1645M1149 245L1108 0L198 0L452 1443L1362 1443L1321 1198L696 1198L631 843L1219 843L1181 616L593 616L524 245L1149 245Z"  horiz-adv-x="1266" vert-adv-y="2048"  />

      
      <glyph glyph-name="uni0117" unicode="&#x0117;" d="M1003 1330Q1003 1330 979.50 1306Q956 1282 891 1282Q826 1282 779.50 1330Q733 1378 733 1445Q733 1512 779.50 1560Q826 1608 891 1608Q956 1608 1003 1560Q1050 1512 1050 1445Q1050 1378 1003 1330M794 916Q698 916 633 862Q568 808 545 708Q536 674 535 661L986 661Q992 697 992 723Q999 809 944 862.50Q889 916 794 916M1182 310Q1156 160 1021 68Q886-24 692-24Q482-24 359.50 91.50Q237 207 237 404Q237 480 253 567L276 695Q312 892 455.50 1009Q599 1126 805 1126Q1005 1126 1131 1010Q1257 894 1249 718Q1249 660 1238 596L1221 486L507 486Q496 431 496 404Q491 306 548 247Q605 188 705 188Q783 188 837.50 220Q892 252 912 310L1182 310Z"  horiz-adv-x="1266" vert-adv-y="2048"  />

      
      <glyph glyph-name="uni0118" unicode="&#x0118;" d="M810-17L813 0L198 0L452 1443L1362 1443L1321 1198L696 1198L631 843L1219 843L1181 616L593 616L524 245L1153 245L1112 2Q847-47 847-191Q847-236 882-263Q917-290 975-290Q1020-290 1050-283L1023-440Q972-459 891-459Q773-459 697.50-401.50Q622-344 622-254Q622-90 810-17Z"  horiz-adv-x="1266" vert-adv-y="2048"  />

      
      <glyph glyph-name="uni0119" unicode="&#x0119;" d="M832-452Q715-452 639.50-393.50Q564-335 564-245Q564-179 603-126.50Q642-74 727-24L728-7Q706-17 682-17Q479-22 358 92.50Q237 207 237 404Q237 478 253 567L276 695Q312 892 455.50 1009Q599 1126 805 1126Q1005 1126 1131 1010Q1257 894 1249 718Q1249 655 1238 596L1221 486L507 486Q496 433 496 404Q491 306 548 247Q605 188 705 188Q784 188 841 220.50Q898 253 918 310L1188 310Q1172 226 1121 161Q1070 96 977 35Q869-36 829-81.50Q789-127 789-183Q789-228 826-255.50Q863-283 923-283Q970-283 993-276L966-433Q914-452 832-452M794 916Q701 916 637 865.50Q573 815 548 722Q538 682 535 661L986 661Q992 697 992 723Q999 809 944 862.50Q889 916 794 916Z"  horiz-adv-x="1266" vert-adv-y="2048"  />

      
      <glyph glyph-name="uni011A" unicode="&#x011A;" d="M792 1594L570 1929L808 1929L926 1735L943 1735L1130 1929L1386 1929L1048 1594L792 1594M1149 245L1108 0L198 0L452 1443L1362 1443L1321 1198L696 1198L631 843L1219 843L1181 616L593 616L524 245L1149 245Z"  horiz-adv-x="1266" vert-adv-y="2048"  />

      
      <glyph glyph-name="uni011B" unicode="&#x011B;" d="M1006 1296L719 1296L514 1652L768 1652L875 1444L893 1444L1072 1652L1337 1652L1006 1296M794 916Q698 916 633 862Q568 808 545 708Q536 674 535 661L986 661Q992 697 992 723Q999 809 944 862.50Q889 916 794 916M1182 310Q1156 160 1021 68Q886-24 692-24Q482-24 359.50 91.50Q237 207 237 404Q237 480 253 567L276 695Q312 892 455.50 1009Q599 1126 805 1126Q1005 1126 1131 1010Q1257 894 1249 718Q1249 660 1238 596L1221 486L507 486Q496 431 496 404Q491 306 548 247Q605 188 705 188Q783 188 837.50 220Q892 252 912 310L1182 310Z"  horiz-adv-x="1266" vert-adv-y="2048"  />

      
      <glyph glyph-name="uni011C" unicode="&#x011C;" d="M1090 1936L1312 1601L1074 1601L956 1795L939 1795L752 1601L496 1601L834 1936L1090 1936M1265 442Q1225 215 1080.50 92.50Q936-30 708-30Q474-30 332 109.50Q190 249 190 479Q190 559 203 633L254 926Q301 1189 457 1330.50Q613 1472 856 1472Q1078 1472 1216.50 1344Q1355 1216 1355 1011Q1355 982 1352 964L1075 964Q1077 986 1077 1003Q1077 1097 1012 1157Q947 1217 844 1217Q726 1217 645.50 1132.50Q565 1048 537 893L487 605Q473 527 473 478Q473 359 540 290Q607 221 722 221Q832 221 903.50 286.50Q975 352 997 474L1013 553L729 553L765 767L1323 767L1265 442Z"  horiz-adv-x="1266" vert-adv-y="2048"  />

      
      <glyph glyph-name="uni011D" unicode="&#x011D;" d="M734 1629L1021 1629L1226 1273L972 1273L865 1481L847 1481L668 1273L403 1273L734 1629M893.50 834Q893.50 834 863.75 862Q834 890 742 890Q650 890 584.50 829Q519 768 500 662L479 537Q471 479 471 448Q471 358 528.50 303Q586 248 679 248Q771 248 837 309Q903 370 922 472L946 610Q953 660 953 691Q953 778 893.50 834M569-414Q364-414 234.50-328.50Q105-243 105-107Q105-85 106-83L373-83L373-87Q378-142 438.50-177Q499-212 591-212Q700-212 767-156Q834-100 853 7L891 222L873 222Q838 128 746.50 69Q655 10 543 10Q384 10 284 113Q184 216 184 381Q184 440 196 519L219 667Q253 879 371.50 1000Q490 1121 663 1121Q788 1121 873 1062.50Q958 1004 990 896L1009 896L1045 1103L1317 1103L1124 4Q1089-197 945-305.50Q801-414 569-414Z"  horiz-adv-x="1266" vert-adv-y="2048"  />

      
      <glyph glyph-name="uni011E" unicode="&#x011E;" d="M1265 442Q1225 215 1080.50 92.50Q936-30 708-30Q474-30 332 109.50Q190 249 190 479Q190 559 203 633L254 926Q301 1189 457 1330.50Q613 1472 856 1472Q1078 1472 1216.50 1344Q1355 1216 1355 1011Q1355 982 1352 964L1075 964Q1077 986 1077 1003Q1077 1097 1012 1157Q947 1217 844 1217Q726 1217 645.50 1132.50Q565 1048 537 893L487 605Q473 527 473 478Q473 359 540 290Q607 221 722 221Q832 221 903.50 286.50Q975 352 997 474L1013 553L729 553L765 767L1323 767L1265 442M1179 1683.50Q1179 1683.50 1120 1637.25Q1061 1591 895 1591Q729 1591 629 1687.50Q529 1784 549 1927L745 1927Q740 1850 785 1802.50Q830 1755 908 1755Q989 1755 1048 1802Q1107 1849 1123 1927L1324 1927Q1297 1776 1179 1683.50Z"  horiz-adv-x="1266" vert-adv-y="2048"  />

      
      <glyph glyph-name="uni011F" unicode="&#x011F;" d="M834 1230Q661 1230 557 1334Q453 1438 480 1584L677 1584Q669 1503 716 1455Q763 1407 849 1407Q935 1407 993 1455.50Q1051 1504 1059 1584L1260 1584Q1245 1427 1126.50 1328.50Q1008 1230 834 1230M893.50 834Q893.50 834 863.75 862Q834 890 742 890Q650 890 584.50 829Q519 768 500 662L479 537Q471 479 471 448Q471 358 528.50 303Q586 248 679 248Q771 248 837 309Q903 370 922 472L946 610Q953 660 953 691Q953 778 893.50 834M569-414Q364-414 234.50-328.50Q105-243 105-107Q105-85 106-83L373-83L373-87Q378-142 438.50-177Q499-212 591-212Q700-212 767-156Q834-100 853 7L891 222L873 222Q838 128 746.50 69Q655 10 543 10Q384 10 284 113Q184 216 184 381Q184 440 196 519L219 667Q253 879 371.50 1000Q490 1121 663 1121Q788 1121 873 1062.50Q958 1004 990 896L1009 896L1045 1103L1317 1103L1124 4Q1089-197 945-305.50Q801-414 569-414Z"  horiz-adv-x="1266" vert-adv-y="2048"  />

      
      </font>
</defs>
</svg>
